<?xml version="1.0" encoding="UTF-8" standalone="no"?>
<svg
   xmlns:dc="http://purl.org/dc/elements/1.1/"
   xmlns:cc="http://creativecommons.org/ns#"
   xmlns:rdf="http://www.w3.org/1999/02/22-rdf-syntax-ns#"
   xmlns:svg="http://www.w3.org/2000/svg"
   xmlns="http://www.w3.org/2000/svg"
   xmlns:sodipodi="http://sodipodi.sourceforge.net/DTD/sodipodi-0.dtd"
   xmlns:inkscape="http://www.inkscape.org/namespaces/inkscape"
   width="1000"
   height="1000"
   viewBox="0 0 264.58333 264.58334"
   version="1.1"
   id="svg8"
   inkscape:version="1.0.2 (e86c870879, 2021-01-15, custom)"
   sodipodi:docname="Capital G.svg">
  <defs
     id="defs2" />
  <sodipodi:namedview
     id="base"
     pagecolor="#ffffff"
     bordercolor="#666666"
     borderopacity="1.0"
     inkscape:pageopacity="0.0"
     inkscape:pageshadow="2"
     inkscape:zoom="0.32"
     inkscape:cx="728.4403"
     inkscape:cy="394.79633"
     inkscape:document-units="px"
     inkscape:current-layer="layer1"
     inkscape:document-rotation="0"
     showgrid="true"
     units="px"
     showguides="true"
     inkscape:guide-bbox="true"
     inkscape:lockguides="true"
     guidecolor="#000000"
     guideopacity="0.49803922"
     inkscape:window-width="1366"
     inkscape:window-height="705"
     inkscape:window-x="-8"
     inkscape:window-y="-8"
     inkscape:window-maximized="1">
    <inkscape:grid
       type="xygrid"
       id="grid10"
       dotted="true"
       originx="0"
       originy="0"
       visible="true" />
    <sodipodi:guide
       position="0,0"
       orientation="0,-1"
       id="guide14"
       inkscape:locked="true" />
    <sodipodi:guide
       position="0,84.666669"
       orientation="0,-1"
       id="guide16"
       inkscape:locked="true" />
    <sodipodi:guide
       position="0,169.33334"
       orientation="0,-1"
       id="guide18"
       inkscape:locked="true" />
    <sodipodi:guide
       position="0,254"
       orientation="0,-1"
       id="guide20"
       inkscape:locked="true" />
    <sodipodi:guide
       position="0,275.16667"
       orientation="1,0"
       id="guide22"
       inkscape:locked="true" />
    <sodipodi:guide
       position="84.666666,275.16667"
       orientation="1,0"
       id="guide26"
       inkscape:locked="true" />
    <sodipodi:guide
       position="127,275.16667"
       orientation="1,0"
       id="guide28"
       inkscape:locked="true" />
  </sodipodi:namedview>
  <metadata
     id="metadata5">
    <rdf:RDF>
      <cc:Work
         rdf:about="">
        <dc:format>image/svg+xml</dc:format>
        <dc:type
           rdf:resource="http://purl.org/dc/dcmitype/StillImage" />
        <dc:title></dc:title>
        <cc:license
           rdf:resource="http://creativecommons.org/publicdomain/zero/1.0/" />
      </cc:Work>
      <cc:License
         rdf:about="http://creativecommons.org/publicdomain/zero/1.0/">
        <cc:permits
           rdf:resource="http://creativecommons.org/ns#Reproduction" />
        <cc:permits
           rdf:resource="http://creativecommons.org/ns#Distribution" />
        <cc:permits
           rdf:resource="http://creativecommons.org/ns#DerivativeWorks" />
      </cc:License>
    </rdf:RDF>
  </metadata>
  <g
     inkscape:label="Layer 1"
     inkscape:groupmode="layer"
     id="layer1">
    <path
       id="path935"
       style="opacity:0.999;fill:#000000;fill-rule:evenodd;stroke-width:99.9999;stroke-linecap:round;stroke-linejoin:round"
       d="M 280 40 A 279.99997 319.99995 0 0 0 0 360 A 279.99998 319.99996 0 0 0 0.08984375 368.08594 C 0.092812816 368.22275 0.096490083 368.35932 0.099609375 368.49609 A 279.99998 319.99996 0 0 0 0.34375 375.82227 C 0.361374 376.23588 0.37944055 376.6493 0.3984375 377.0625 C 0.39903765 377.07555 0.39978911 377.08851 0.40039062 377.10156 A 279.99998 319.99996 0 0 0 0.74023438 383.25781 A 279.99998 319.99996 0 0 0 0.74414062 383.33008 C 0.8077513 384.33889 0.87939627 385.34537 0.95117188 386.35156 C 0.95391527 386.39002 0.95622908 386.42834 0.95898438 386.4668 A 279.99998 319.99996 0 0 0 1.2363281 390.03711 C 6.0207135 448.76045 24.686758 502.8701 53.451172 548.05273 A 279.99998 319.99996 0 0 0 54.097656 549.06445 C 54.942842 550.38123 55.793956 551.6928 56.65625 552.99414 A 279.99998 319.99996 0 0 0 58.884766 556.31836 C 59.38659 557.05553 59.889158 557.79144 60.396484 558.52344 C 60.397823 558.52537 60.399052 558.52737 60.400391 558.5293 A 279.99998 319.99996 0 0 0 63.384766 562.76562 C 63.736452 563.25576 64.089181 563.74472 64.443359 564.23242 A 279.99998 319.99996 0 0 0 68 569.03711 C 68.183879 569.28047 68.366272 569.52486 68.550781 569.76758 A 279.99998 319.99996 0 0 0 72.642578 575.03711 A 279.99998 319.99996 0 0 0 72.6875 575.09375 C 72.744038 575.16488 72.800829 575.23557 72.857422 575.30664 A 279.99998 319.99996 0 0 0 77.193359 580.63086 C 77.279764 580.73457 77.3666 580.83783 77.453125 580.94141 A 279.99998 319.99996 0 0 0 82.009766 586.27344 A 279.99998 319.99996 0 0 0 86.757812 591.57227 C 86.792386 591.60996 86.826738 591.64787 86.861328 591.68555 A 279.99998 319.99996 0 0 0 86.914062 591.74414 A 279.99998 319.99996 0 0 0 91.542969 596.66602 C 91.658142 596.78587 91.773324 596.90575 91.888672 597.02539 C 91.892511 597.02937 91.896551 597.03313 91.900391 597.03711 A 279.99998 319.99996 0 0 0 96.513672 601.71484 C 96.665952 601.86596 96.818135 602.01722 96.970703 602.16797 C 96.989396 602.18644 97.008646 602.20419 97.027344 602.22266 A 279.99998 319.99996 0 0 0 101.36523 606.41602 C 101.72573 606.75773 102.0872 607.09781 102.44922 607.4375 A 279.99998 319.99996 0 0 0 106.2168 610.90625 C 106.91474 611.5385 107.61699 612.16429 108.32031 612.78906 A 279.99998 319.99996 0 0 0 110.83203 614.99219 C 112.11336 616.10419 113.40466 617.20186 114.70312 618.28906 A 279.99998 319.99996 0 0 0 115.33789 618.81641 C 158.51049 654.75343 211.00684 676.9382 267.91016 679.70117 C 268.60499 679.73491 269.29996 679.76698 269.99609 679.79492 A 279.99998 319.99996 0 0 0 272.51953 679.88477 C 272.66342 679.88908 272.80723 679.89437 272.95117 679.89844 A 279.99998 319.99996 0 0 0 276.20703 679.9707 C 276.35605 679.97296 276.50522 679.97457 276.6543 679.97656 A 279.99998 319.99996 0 0 0 280 680 A 279.99998 319.99996 0 0 0 283.28906 679.97656 C 283.48177 679.97413 283.67449 679.97161 283.86719 679.96875 A 279.99998 319.99996 0 0 0 286.26562 679.91992 C 286.76888 679.90782 287.27227 679.89195 287.77539 679.87695 A 279.99998 319.99996 0 0 0 292.51562 679.67969 C 442.66645 672.48943 584.96346 536.98207 560 360 L 520 360 L 480 360 L 320 360 L 320 440 L 468.56055 440 C 461.4961 463.97754 451.47362 485.96707 439.08984 505.46484 L 439.08203 505.45703 A 199.99998 239.99999 0 0 1 435.58984 510.79883 A 199.99998 239.99999 0 0 1 433.43555 513.94531 A 199.99998 239.99999 0 0 1 432.70703 514.98438 A 199.99998 239.99999 0 0 1 430.64258 517.86523 A 199.99998 239.99999 0 0 1 430.49219 518.07227 C 430.46087 518.11518 430.42978 518.15829 430.39844 518.20117 A 199.99998 239.99999 0 0 1 428.48828 520.77734 C 428.17819 521.18953 427.86705 521.60032 427.55469 522.00977 A 199.99998 239.99999 0 0 1 427.47266 522.11914 A 199.99998 239.99999 0 0 1 426.17578 523.80273 C 425.73851 524.36433 425.29898 524.92417 424.85742 525.48047 A 199.99998 239.99999 0 0 1 423.66797 526.9668 A 199.99998 239.99999 0 0 1 423.59375 527.05859 C 423.11232 527.65415 422.62892 528.24665 422.14258 528.83594 A 199.99998 239.99999 0 0 1 422.00781 528.99805 A 199.99998 239.99999 0 0 1 420.98438 530.22656 C 420.43757 530.87834 419.88875 531.52602 419.33594 532.16992 A 199.99998 239.99999 0 0 1 418.40039 533.25391 C 417.7116 534.04581 417.01816 534.83361 416.32031 535.61328 C 416.31509 535.61911 416.30991 535.62503 416.30469 535.63086 A 199.99998 239.99999 0 0 1 415.76172 536.23242 C 415.00265 537.07406 414.24023 537.90922 413.4707 538.73633 A 199.99998 239.99999 0 0 1 413.08984 539.14648 C 412.27849 540.01407 411.46138 540.87329 410.63867 541.72461 A 199.99998 239.99999 0 0 1 410.16992 542.20703 C 409.33364 543.06702 408.49226 543.9206 407.64453 544.76367 A 199.99998 239.99999 0 0 1 407.34766 545.05859 C 406.45291 545.94494 405.55175 546.8221 404.64453 547.68945 C 404.61762 547.71518 404.59137 547.74187 404.56445 547.76758 A 199.99998 239.99999 0 0 1 404.50781 547.82227 C 403.55759 548.7291 402.60034 549.62396 401.63672 550.50977 C 401.6164 550.52844 401.59649 550.54774 401.57617 550.56641 A 199.99998 239.99999 0 0 1 401.49609 550.63867 C 400.51873 551.53547 399.53382 552.42192 398.54297 553.29688 C 397.52522 554.19559 396.50044 555.08356 395.46875 555.95898 C 394.43706 556.83441 393.39886 557.69694 392.35352 558.54883 C 391.33588 559.37814 390.31155 560.19713 389.28125 561.00391 C 389.2532 561.02587 389.22532 561.04837 389.19727 561.07031 A 199.99998 239.99999 0 0 1 389.10742 561.13867 C 388.09163 561.9323 387.07078 562.7148 386.04297 563.48633 C 386.02924 563.49663 386.01568 563.50728 386.00195 563.51758 A 199.99998 239.99999 0 0 1 385.97266 563.53906 C 384.96535 564.2945 383.95219 565.03943 382.93359 565.77344 C 382.91851 565.78431 382.90376 565.79578 382.88867 565.80664 A 199.99998 239.99999 0 0 1 382.55469 566.04297 C 381.61876 566.71404 380.67763 567.37646 379.73242 568.0293 A 199.99998 239.99999 0 0 1 379.2793 568.3418 C 378.35231 568.9782 377.42201 569.60587 376.48633 570.22461 A 199.99998 239.99999 0 0 1 375.89062 570.61523 C 374.98894 571.20672 374.08336 571.79024 373.17383 572.36523 A 199.99998 239.99999 0 0 1 373.07227 572.42969 A 199.99998 239.99999 0 0 1 372.39062 572.85547 C 371.61468 573.34077 370.83619 573.81973 370.05469 574.29297 C 370.02997 574.30794 370.00519 574.32293 369.98047 574.33789 A 199.99998 239.99999 0 0 1 369.06445 574.89062 A 199.99998 239.99999 0 0 1 369.04297 574.90234 C 368.24811 575.37693 367.44887 575.84263 366.64844 576.30469 A 199.99998 239.99999 0 0 1 365.41211 577.01172 C 364.715 577.40711 364.01565 577.79773 363.31445 578.18359 A 199.99998 239.99999 0 0 1 361.88281 578.96289 A 199.99998 239.99999 0 0 1 361.64062 579.0918 C 361.15054 579.35498 360.65998 579.61648 360.16797 579.875 A 199.99998 239.99999 0 0 1 359.8125 580.0625 A 199.99998 239.99999 0 0 1 357.73242 581.13086 A 199.99998 239.99999 0 0 1 356.68945 581.65625 C 356.68867 581.65664 356.68828 581.65781 356.6875 581.6582 A 199.99998 239.99999 0 0 1 353.64648 583.13672 A 199.99998 239.99999 0 0 1 353.54297 583.18555 C 353.52666 583.19329 353.51045 583.20125 353.49414 583.20898 A 199.99998 239.99999 0 0 1 350.375 584.65039 A 199.99998 239.99999 0 0 1 309.93555 597.29688 A 199.99998 239.99999 0 0 1 308.81641 597.49609 C 308.80333 597.49837 308.79042 597.50163 308.77734 597.50391 A 199.99998 239.99999 0 0 1 306.06641 597.95117 C 305.61405 598.02234 305.16213 598.09265 304.70898 598.16016 A 199.99998 239.99999 0 0 1 302.69922 598.44922 C 302.00182 598.54451 301.30268 598.63412 300.60352 598.7207 A 199.99998 239.99999 0 0 1 298.93164 598.92188 C 298.00237 599.0275 297.07285 599.12662 296.14062 599.2168 A 199.99998 239.99999 0 0 1 295.46289 599.28125 C 294.33446 599.38578 293.20287 599.48075 292.07031 599.5625 A 199.99998 239.99999 0 0 1 291.9375 599.57227 A 199.99998 239.99999 0 0 1 291.59375 599.5957 C 290.4217 599.67694 289.24849 599.74607 288.07227 599.80273 A 199.99998 239.99999 0 0 1 287.74414 599.81836 C 286.50587 599.87558 285.26608 599.92138 284.02344 599.95117 C 284.00452 599.95163 283.98571 599.95268 283.9668 599.95312 A 199.99998 239.99999 0 0 1 283.87891 599.95508 C 282.58837 599.9849 281.29497 599.99999 280 600 C 278.32047 600 276.64618 599.97322 274.97656 599.92383 A 199.99998 239.99999 0 0 1 274.68555 599.91406 C 273.15456 599.86613 271.6277 599.79407 270.10547 599.70508 A 199.99998 239.99999 0 0 1 269.16602 599.64648 C 267.93804 599.56782 266.71418 599.47232 265.49219 599.36719 A 199.99998 239.99999 0 0 1 263.375 599.16992 C 262.69857 599.10312 262.02411 599.02799 261.34961 598.95312 A 199.99998 239.99999 0 0 1 162.55273 554.25977 A 199.99998 239.99999 0 0 1 162.0625 553.83008 C 161.90193 553.68915 161.74029 553.54969 161.58008 553.4082 A 199.99998 239.99999 0 0 1 159.29688 551.36328 C 158.60854 550.7371 157.92352 550.10728 157.24219 549.4707 C 157.18454 549.41684 157.12596 549.36448 157.06836 549.31055 A 199.99998 239.99999 0 0 1 155.94336 548.25 C 155.06145 547.41196 154.18422 546.56633 153.31445 545.71094 A 199.99998 239.99999 0 0 1 152.34961 544.75781 C 151.31585 543.72818 150.28948 542.68872 149.27344 541.63477 C 149.24879 541.6092 149.22386 541.58418 149.19922 541.55859 A 199.99998 239.99999 0 0 1 148.91211 541.25977 C 147.80775 540.10868 146.71377 538.94505 145.63086 537.76562 A 199.99998 239.99999 0 0 1 145.39453 537.50781 C 144.29077 536.30184 143.19815 535.08066 142.11719 533.8457 A 199.99998 239.99999 0 0 1 141.93164 533.63477 C 140.82272 532.36464 139.72501 531.07943 138.64062 529.7793 C 138.60537 529.73703 138.57038 529.69464 138.53516 529.65234 C 137.43493 528.33127 136.34788 526.99595 135.27344 525.64453 A 199.99998 239.99999 0 0 1 135.24805 525.61133 C 135.2299 525.58849 135.2115 525.56582 135.19336 525.54297 C 134.12815 524.20161 133.07646 522.84525 132.03711 521.47461 A 199.99998 239.99999 0 0 1 131.83984 521.21094 C 130.88558 519.94879 129.94176 518.67314 129.00977 517.38672 A 199.99998 239.99999 0 0 1 128.53516 516.73047 C 127.68071 515.54247 126.83718 514.34291 126.00195 513.13477 A 199.99998 239.99999 0 0 1 125.28711 512.0918 C 124.61599 511.10989 123.95324 510.11982 123.29492 509.125 A 199.99998 239.99999 0 0 1 121.99023 507.13086 A 199.99998 239.99999 0 0 1 121.98047 507.11523 C 121.52123 506.40594 121.06601 505.69217 120.61328 504.97656 A 199.99998 239.99999 0 0 1 120.54688 504.87109 A 199.99998 239.99999 0 0 1 118.58594 501.70898 A 199.99998 239.99999 0 0 1 80.90625 382.8125 C 80.824475 381.77198 80.744496 380.72989 80.673828 379.68555 A 199.99998 239.99999 0 0 1 80.529297 377.42188 C 80.439339 375.91741 80.355802 374.41046 80.289062 372.89844 A 199.99998 239.99999 0 0 1 80.244141 371.87695 C 80.169886 370.04883 80.110289 368.21755 80.070312 366.37891 C 80.069745 366.35279 80.06892 366.3269 80.068359 366.30078 A 199.99998 239.99999 0 0 1 80.0625 365.96289 C 80.02223 363.98115 80 361.99337 80 360 A 199.99999 240 0 0 1 280 120 A 199.99999 240 0 0 1 439.08203 214.54297 L 496.24219 156.71484 A 279.99997 319.99995 0 0 0 280 40 z "
       transform="scale(0.26458333)" />
  </g>
</svg>
