<?xml version="1.0" encoding="UTF-8" standalone="no"?>
<svg
   xmlns:dc="http://purl.org/dc/elements/1.1/"
   xmlns:cc="http://creativecommons.org/ns#"
   xmlns:rdf="http://www.w3.org/1999/02/22-rdf-syntax-ns#"
   xmlns:svg="http://www.w3.org/2000/svg"
   xmlns="http://www.w3.org/2000/svg"
   xmlns:sodipodi="http://sodipodi.sourceforge.net/DTD/sodipodi-0.dtd"
   xmlns:inkscape="http://www.inkscape.org/namespaces/inkscape"
   width="1000"
   height="1000"
   viewBox="0 0 264.58333 264.58334"
   version="1.1"
   id="svg8"
   inkscape:version="1.0.2 (e86c870879, 2021-01-15, custom)"
   sodipodi:docname="Digit 3.svg">
  <defs
     id="defs2" />
  <sodipodi:namedview
     id="base"
     pagecolor="#ffffff"
     bordercolor="#666666"
     borderopacity="1.0"
     inkscape:pageopacity="0.0"
     inkscape:pageshadow="2"
     inkscape:zoom="0.5"
     inkscape:cx="112.08263"
     inkscape:cy="382.59567"
     inkscape:document-units="px"
     inkscape:current-layer="layer1"
     inkscape:document-rotation="0"
     showgrid="true"
     units="px"
     showguides="true"
     inkscape:guide-bbox="true"
     inkscape:lockguides="true"
     guidecolor="#000000"
     guideopacity="0.49803922"
     inkscape:window-width="1366"
     inkscape:window-height="705"
     inkscape:window-x="-8"
     inkscape:window-y="-8"
     inkscape:window-maximized="1">
    <inkscape:grid
       type="xygrid"
       id="grid10"
       dotted="true"
       originx="0"
       originy="0"
       visible="true" />
    <sodipodi:guide
       position="0,0"
       orientation="0,-1"
       id="guide14"
       inkscape:locked="true" />
    <sodipodi:guide
       position="0,169.33334"
       orientation="0,-1"
       id="guide18"
       inkscape:locked="true" />
    <sodipodi:guide
       position="0,254"
       orientation="0,-1"
       id="guide20"
       inkscape:locked="true" />
    <sodipodi:guide
       position="0,275.16667"
       orientation="1,0"
       id="guide22"
       inkscape:locked="true" />
    <sodipodi:guide
       position="84.666666,275.16667"
       orientation="1,0"
       id="guide26"
       inkscape:locked="true" />
    <sodipodi:guide
       position="127,275.16667"
       orientation="1,0"
       id="guide28"
       inkscape:locked="true" />
    <sodipodi:guide
       position="0,84.666669"
       orientation="0,-1"
       id="guide3016"
       inkscape:locked="true" />
  </sodipodi:namedview>
  <metadata
     id="metadata5">
    <rdf:RDF>
      <cc:Work
         rdf:about="">
        <dc:format>image/svg+xml</dc:format>
        <dc:type
           rdf:resource="http://purl.org/dc/dcmitype/StillImage" />
        <dc:title></dc:title>
        <cc:license
           rdf:resource="http://creativecommons.org/publicdomain/zero/1.0/" />
      </cc:Work>
      <cc:License
         rdf:about="http://creativecommons.org/publicdomain/zero/1.0/">
        <cc:permits
           rdf:resource="http://creativecommons.org/ns#Reproduction" />
        <cc:permits
           rdf:resource="http://creativecommons.org/ns#Distribution" />
        <cc:permits
           rdf:resource="http://creativecommons.org/ns#DerivativeWorks" />
      </cc:License>
    </rdf:RDF>
  </metadata>
  <g
     inkscape:label="Layer 1"
     inkscape:groupmode="layer"
     id="layer1">
    <path
       id="path3313"
       style="opacity:0.999;fill:#000000;stroke:none;stroke-width:99.9999;stroke-linecap:round;stroke-linejoin:round"
       d="M 180 40 A 180 180 0 0 0 0 220 L 80 220 A 99.999991 99.999991 0 0 1 180 120 A 99.999991 99.999991 0 0 1 280 220 A 99.999991 99.999991 0 0 1 180 320 L 140 320 L 140 400 L 180 400 A 99.999991 99.999991 0 0 1 280 500 A 99.999991 99.999991 0 0 1 180 600 A 99.999991 99.999991 0 0 1 80 500 L 0 500 A 180 180 0 0 0 180 680 A 180 180 0 0 0 360 500 A 180 180 0 0 0 293.13672 360 A 180 180 0 0 0 360 220 A 180 180 0 0 0 180 40 z "
       transform="scale(0.26458333)" />
  </g>
</svg>
