<?xml version="1.0" encoding="UTF-8" standalone="no"?>
<svg
   xmlns:dc="http://purl.org/dc/elements/1.1/"
   xmlns:cc="http://creativecommons.org/ns#"
   xmlns:rdf="http://www.w3.org/1999/02/22-rdf-syntax-ns#"
   xmlns:svg="http://www.w3.org/2000/svg"
   xmlns="http://www.w3.org/2000/svg"
   xmlns:sodipodi="http://sodipodi.sourceforge.net/DTD/sodipodi-0.dtd"
   xmlns:inkscape="http://www.inkscape.org/namespaces/inkscape"
   width="500mm"
   height="200mm"
   viewBox="0 0 500 200"
   version="1.1"
   id="svg8"
   inkscape:version="1.0.2 (e86c870879, 2021-01-15, custom)"
   sodipodi:docname="Banner.svg">
  <defs
     id="defs2" />
  <sodipodi:namedview
     id="base"
     pagecolor="#ffffff"
     bordercolor="#666666"
     borderopacity="1.0"
     inkscape:pageopacity="0.0"
     inkscape:pageshadow="2"
     inkscape:zoom="0.35"
     inkscape:cx="1025.5822"
     inkscape:cy="243.23063"
     inkscape:document-units="mm"
     inkscape:current-layer="layer2"
     inkscape:document-rotation="0"
     showgrid="false"
     showguides="true"
     inkscape:guide-bbox="true"
     inkscape:window-width="1366"
     inkscape:window-height="705"
     inkscape:window-x="-8"
     inkscape:window-y="-8"
     inkscape:window-maximized="1" />
  <metadata
     id="metadata5">
    <rdf:RDF>
      <cc:Work
         rdf:about="">
        <dc:format>image/svg+xml</dc:format>
        <dc:type
           rdf:resource="http://purl.org/dc/dcmitype/StillImage" />
        <dc:title></dc:title>
      </cc:Work>
    </rdf:RDF>
  </metadata>
  <g
     inkscape:groupmode="layer"
     id="layer2"
     inkscape:label="Layer 2">
    <rect
       style="opacity:0.999;fill:#ffd9bf;stroke-width:26.4583;stroke-linecap:round;stroke-linejoin:round;fill-opacity:1"
       id="rect38"
       width="386.29166"
       height="281.97021"
       x="0.32075524"
       y="-161.71751"
       transform="rotate(30)" />
    <rect
       style="opacity:0.999;fill:#ffe6d5;stroke-width:26.4583;stroke-linecap:round;stroke-linejoin:round"
       id="rect867"
       width="386.29166"
       height="281.97021"
       x="0.56363016"
       y="-166.13493"
       transform="rotate(30)" />
    <rect
       style="opacity:0.999;fill:#b5ffd3;stroke-width:26.4583;stroke-linecap:round;stroke-linejoin:round;fill-opacity:1"
       id="rect40"
       width="386.29166"
       height="281.97021"
       x="203.00082"
       y="-267.80396"
       transform="rotate(30)" />
    <rect
       style="opacity:0.999;fill:#d5ffe6;stroke-width:26.4583;stroke-linecap:round;stroke-linejoin:round"
       id="rect42"
       width="386.29166"
       height="281.97021"
       x="200.07829"
       y="-271.35394"
       transform="rotate(30)" />
  </g>
  <g
     inkscape:label="Layer 1"
     inkscape:groupmode="layer"
     id="layer1">
    <rect
       style="opacity:0.999;fill:#999999;stroke-width:26.4583;stroke-linecap:round;stroke-linejoin:round"
       id="rect31"
       width="557.89288"
       height="5.2916665"
       x="-26.458332"
       y="145.89882" />
    <rect
       style="opacity:0.999;fill:#999999;stroke-width:26.4583;stroke-linecap:round;stroke-linejoin:round"
       id="rect35"
       width="557.89288"
       height="5.2916665"
       x="-24.190475"
       y="97.517853" />
    <g
       aria-label="Serarif"
       id="text12"
       style="font-size:144.081px;line-height:1.25;font-family:Serarif;-inkscape-font-specification:Serarif;stroke-width:1.00056"
       transform="translate(6.8035715,8.8471497)">
      <path
         d="m 111.92122,44.839822 q 0,0 0,0 v 0 q 16.28115,0 26.65498,9.365265 l -7.05997,8.933022 q -3.0257,-3.169782 -8.21261,-4.898754 -5.18692,-1.873053 -11.3824,-1.873053 -9.50935,0 -16.281155,4.178349 -6.771807,4.178348 -6.771807,10.22975 0,5.907321 6.771807,10.229751 6.771805,4.178349 16.281155,4.178349 v 0.288162 q 12.39096,1.58489 20.60358,8.78894 8.21262,7.204047 8.21262,16.857477 0,10.66199 -10.22975,18.29829 -10.08567,7.49221 -24.34969,7.63629 v 0 0 q -16.281155,-0.14408 -26.654987,-9.50935 l 6.915888,-8.93302 q 3.169782,3.16978 8.356698,5.04284 5.186915,1.87305 11.382401,1.87305 9.50934,0 16.28115,-4.17835 6.77181,-4.32243 6.77181,-10.22975 0,-6.0514 -6.77181,-10.22975 -6.77181,-4.17835 -16.28115,-4.17835 V 96.276737 Q 93.767012,94.691846 85.554395,87.487796 77.341778,80.283747 77.341778,70.774401 q 0,-10.806074 10.08567,-18.298286 10.229751,-7.636293 24.493772,-7.636293 z"
         style="font-size:144.081px;stroke-width:1.00056"
         id="path16" />
      <path
         d="m 175.02854,84.750258 q 1.44081,0 2.73754,0.144081 9.79751,1.008567 16.56931,8.212616 6.77181,7.492215 6.77181,17.577885 0,3.60202 -0.72041,5.76324 h -5.04283 -6.91589 -26.5109 q 1.72897,3.89018 5.331,6.33956 3.60202,2.3053 7.92445,2.3053 6.62773,0 10.95016,-5.04284 l 8.21261,8.21262 q -7.78037,8.3567 -19.16277,8.3567 -10.80607,0 -18.44237,-7.49222 -7.49221,-7.63629 -7.49221,-18.44236 0,-10.08567 6.77181,-17.577885 7.05997,-7.636292 17.4338,-8.356697 0.7204,0 1.58489,0 z m -0.14408,11.526479 q -0.43225,0 -0.72041,0 -4.17835,0.288162 -7.49221,2.737539 -3.16978,2.305294 -4.75467,5.907324 h 26.5109 q -1.58489,-3.45795 -4.75467,-5.763243 -3.0257,-2.305296 -6.77181,-2.737539 -0.86448,-0.144081 -2.01713,-0.144081 z"
         style="font-size:144.081px;stroke-width:1.00056"
         id="path18" />
      <path
         d="m 211.04865,84.750258 h 11.52648 v 3.0257 q 5.33099,-3.0257 11.52648,-3.0257 0,0 0,0 h 5.76324 v 0.720405 10.806074 h -5.76324 v 0 q -4.75468,0 -8.21262,3.457944 -3.31386,3.313859 -3.31386,8.068539 v 28.8162 h -11.52648 v -28.8162 z"
         style="font-size:144.081px;stroke-width:1.00056"
         id="path20" />
      <path
         d="m 274.7323,84.750258 q 7.92446,0 14.4081,4.322429 v -4.322429 h 11.52648 v 25.934582 25.93458 H 289.1404 v -4.32243 q -6.48364,4.32243 -14.4081,4.32243 -10.80607,0 -18.44236,-7.49222 -7.49221,-7.63629 -7.49221,-18.44236 0,-10.806078 7.49221,-18.29829 7.63629,-7.636292 18.44236,-7.636292 z m 10.08567,15.848912 q -4.17834,-4.322433 -10.08567,-4.322433 -5.90732,0 -10.22975,4.322433 -4.17834,4.17835 -4.17834,10.08567 0,5.90732 4.17834,10.22975 4.32243,4.17835 10.22975,4.17835 5.90733,0 10.08567,-4.17835 4.32243,-4.32243 4.32243,-10.22975 0,-5.90732 -4.32243,-10.08567 z"
         style="font-size:144.081px;stroke-width:1.00056"
         id="path22" />
      <path
         d="m 311.47289,84.750258 h 11.52648 v 3.0257 q 5.33099,-3.0257 11.52648,-3.0257 0,0 0,0 h 5.76324 v 0.720405 10.806074 h -5.76324 v 0 q -4.75468,0 -8.21262,3.457944 -3.31386,3.313859 -3.31386,8.068539 v 28.8162 h -11.52648 v -28.8162 z"
         style="font-size:144.081px;stroke-width:1.00056"
         id="path24" />
      <path
         d="M 350.23053,136.61942 V 84.750258 h 11.52648 v 51.869162 z m 1.58489,-59.217293 q -1.58489,-1.728972 -1.58489,-4.178349 0,-2.449377 1.58489,-4.034268 1.72898,-1.728972 4.17835,-1.728972 2.44938,0 4.03427,1.728972 1.72897,1.584891 1.72897,4.034268 0,2.449377 -1.72897,4.178349 -1.58489,1.584891 -4.03427,1.584891 -2.44937,0 -4.17835,-1.584891 z"
         style="font-size:144.081px;stroke-width:1.00056"
         id="path26" />
      <path
         d="m 408.87134,44.407579 h 8.64486 v 11.52648 h -8.64486 q -5.90732,0 -10.22975,4.32243 -4.17835,4.178348 -4.17835,10.085669 0,1.44081 0.28816,2.88162 h -0.28816 v 11.52648 h 14.4081 8.64486 v 11.526479 h -8.64486 -14.4081 V 136.61942 H 382.93676 V 96.276737 H 371.41028 V 84.750258 h 11.52648 v -14.4081 -2.88162 h 0.14408 q 1.15265,-9.797507 8.50078,-16.425233 7.34813,-6.627726 17.28972,-6.627726 z"
         style="font-size:144.081px;stroke-width:1.00056"
         id="path28" />
    </g>
  </g>
</svg>
