<?xml version="1.0" encoding="UTF-8" standalone="no"?>
<!-- Created with Inkscape (http://www.inkscape.org/) -->

<svg
   width="27"
   height="27"
   viewBox="0 0 7.14375 7.1437502"
   version="1.1"
   id="svg5"
   inkscape:version="1.1 (c68e22c387, 2021-05-23)"
   sodipodi:docname="Digit 0.svg"
   xmlns:inkscape="http://www.inkscape.org/namespaces/inkscape"
   xmlns:sodipodi="http://sodipodi.sourceforge.net/DTD/sodipodi-0.dtd"
   xmlns="http://www.w3.org/2000/svg"
   xmlns:svg="http://www.w3.org/2000/svg"
   xmlns:rdf="http://www.w3.org/1999/02/22-rdf-syntax-ns#"
   xmlns:cc="http://creativecommons.org/ns#"
   xmlns:dc="http://purl.org/dc/elements/1.1/">
  <title
     id="title836">Serarif</title>
  <sodipodi:namedview
     id="namedview7"
     pagecolor="#ffffff"
     bordercolor="#999999"
     borderopacity="1"
     inkscape:pageshadow="0"
     inkscape:pageopacity="0"
     inkscape:pagecheckerboard="0"
     inkscape:document-units="px"
     showgrid="true"
     showguides="true"
     inkscape:guide-bbox="true"
     inkscape:zoom="17.125"
     inkscape:cx="24.759124"
     inkscape:cy="13.751825"
     inkscape:window-width="1366"
     inkscape:window-height="705"
     inkscape:window-x="-8"
     inkscape:window-y="-8"
     inkscape:window-maximized="1"
     inkscape:current-layer="layer1">
    <inkscape:grid
       type="xygrid"
       id="grid824"
       dotted="true" />
    <sodipodi:guide
       position="0,1.8520834"
       orientation="0,-1"
       id="guide826" />
    <sodipodi:guide
       position="0,0"
       orientation="0,-1"
       id="guide828" />
    <sodipodi:guide
       position="0,6.3500001"
       orientation="0,-1"
       id="guide830" />
    <sodipodi:guide
       position="1.3229167,7.1437502"
       orientation="1,0"
       id="guide832" />
    <sodipodi:guide
       position="0,7.1437502"
       orientation="0,-1"
       id="guide829" />
  </sodipodi:namedview>
  <defs
     id="defs2" />
  <g
     inkscape:label="Layer 1"
     inkscape:groupmode="layer"
     id="layer1">
    <path
       id="path24398"
       style="fill:#000000;fill-opacity:1;stroke:none;stroke-width:0.529167;stroke-linecap:butt;stroke-linejoin:bevel;stroke-miterlimit:0;stroke-dasharray:none;paint-order:normal"
       d="m 2.9104167,0.79375001 a 1.5875,2.24896 0 0 0 -1.5875,2.24895899 1.5875,2.24896 0 0 0 1.5875,2.248958 1.5875,2.24896 0 0 0 1.5875,-2.248958 1.5875,2.24896 0 0 0 -1.5875,-2.24895899 z m 0,0.52916699 A 1.0583333,1.7197916 0 0 1 3.9687497,3.042709 1.0583333,1.7197916 0 0 1 2.9104167,4.7625 1.0583333,1.7197916 0 0 1 1.8520827,3.042709 1.0583333,1.7197916 0 0 1 2.9104167,1.322917 Z" />
    <path
       id="path24678"
       style="fill:#000000;fill-opacity:1;stroke:none;stroke-width:0.529167;stroke-linecap:butt;stroke-linejoin:bevel;stroke-miterlimit:0;stroke-dasharray:none;paint-order:normal"
       d="m 2.9104166,2.513542 c -0.1461254,0 -0.2645833,0.118458 -0.2645833,0.264584 v 0.532525 c 0,0.146126 0.1184579,0.264584 0.2645833,0.264584 0.1461254,0 0.2645834,-0.118458 0.2645834,-0.264584 2.83e-5,-0.0022 2.83e-5,-0.0045 0,-0.0067 V 2.778144 C 3.175,2.632019 3.056542,2.513561 2.9104166,2.51356 Z"
       sodipodi:nodetypes="ssssccss" />
  </g>
  <metadata
     id="metadata834">
    <rdf:RDF>
      <cc:Work
         rdf:about="">
        <cc:license
           rdf:resource="OFL 1.1" />
        <dc:creator>
          <cc:Agent>
            <dc:title>nahkd123</dc:title>
          </cc:Agent>
        </dc:creator>
        <dc:title>Serarif</dc:title>
        <dc:description>Serarif Remastered</dc:description>
      </cc:Work>
    </rdf:RDF>
  </metadata>
</svg>
