<?xml version="1.0" encoding="UTF-8" standalone="no"?>
<!-- Created with Inkscape (http://www.inkscape.org/) -->

<svg
   width="27"
   height="27"
   viewBox="0 0 7.14375 7.1437502"
   version="1.1"
   id="svg5"
   inkscape:version="1.1 (c68e22c387, 2021-05-23)"
   sodipodi:docname="Uppercase G.svg"
   xmlns:inkscape="http://www.inkscape.org/namespaces/inkscape"
   xmlns:sodipodi="http://sodipodi.sourceforge.net/DTD/sodipodi-0.dtd"
   xmlns="http://www.w3.org/2000/svg"
   xmlns:svg="http://www.w3.org/2000/svg"
   xmlns:rdf="http://www.w3.org/1999/02/22-rdf-syntax-ns#"
   xmlns:cc="http://creativecommons.org/ns#"
   xmlns:dc="http://purl.org/dc/elements/1.1/">
  <title
     id="title836">Serarif</title>
  <sodipodi:namedview
     id="namedview7"
     pagecolor="#ffffff"
     bordercolor="#999999"
     borderopacity="1"
     inkscape:pageshadow="0"
     inkscape:pageopacity="0"
     inkscape:pagecheckerboard="0"
     inkscape:document-units="px"
     showgrid="true"
     showguides="true"
     inkscape:guide-bbox="true"
     inkscape:zoom="17.125"
     inkscape:cx="24.759124"
     inkscape:cy="13.751825"
     inkscape:window-width="1366"
     inkscape:window-height="705"
     inkscape:window-x="-8"
     inkscape:window-y="-8"
     inkscape:window-maximized="1"
     inkscape:current-layer="layer1">
    <inkscape:grid
       type="xygrid"
       id="grid824"
       dotted="true" />
    <sodipodi:guide
       position="0,1.8520834"
       orientation="0,-1"
       id="guide826" />
    <sodipodi:guide
       position="0,0"
       orientation="0,-1"
       id="guide828" />
    <sodipodi:guide
       position="0,6.3500001"
       orientation="0,-1"
       id="guide830" />
    <sodipodi:guide
       position="1.3229167,7.1437502"
       orientation="1,0"
       id="guide832" />
    <sodipodi:guide
       position="0,7.1437502"
       orientation="0,-1"
       id="guide829" />
  </sodipodi:namedview>
  <defs
     id="defs2" />
  <g
     inkscape:label="Layer 1"
     inkscape:groupmode="layer"
     id="layer1">
    <path
       id="path12939"
       style="fill:#000000;stroke-width:0.529167;stroke-linejoin:bevel;stroke-miterlimit:0"
       d="M 2.9104166,0.79375003 A 1.5874998,2.2489599 0 0 0 1.3229167,3.0427083 1.5874998,2.2489599 0 0 0 1.3260167,3.175 h 0.0031 A 1.5874999,2.2489582 0 0 0 2.9104166,5.2916666 1.5874999,2.2489582 0 0 0 4.4932652,3.1941203 h 0.00465 V 2.6458333 H 2.8478877 v 0.548287 h 1.11311 A 1.0583332,1.7197915 0 0 1 2.9104166,4.7624999 1.0583332,1.7197915 0 0 1 1.8582846,3.175 h -0.0031 a 1.0583331,1.7197915 0 0 1 -0.0031,-0.1322917 1.0583331,1.7197915 0 0 1 1.0583333,-1.7197916 1.0583331,1.7197915 0 0 1 0.688848,0.4149616 L 4.0204257,1.4371217 A 1.5874998,2.2489599 0 0 0 2.9104166,0.79375003 Z" />
  </g>
  <metadata
     id="metadata834">
    <rdf:RDF>
      <cc:Work
         rdf:about="">
        <cc:license
           rdf:resource="OFL 1.1" />
        <dc:creator>
          <cc:Agent>
            <dc:title>nahkd123</dc:title>
          </cc:Agent>
        </dc:creator>
        <dc:title>Serarif</dc:title>
        <dc:description>Serarif Remastered</dc:description>
      </cc:Work>
    </rdf:RDF>
  </metadata>
</svg>
