<?xml version="1.0" encoding="UTF-8" standalone="no"?>
<!-- Created with Inkscape (http://www.inkscape.org/) -->

<svg
   width="210mm"
   height="210mm"
   viewBox="0 0 210 210"
   version="1.1"
   id="svg5"
   inkscape:version="1.1 (c68e22c387, 2021-05-23)"
   sodipodi:docname="drawing1.svg"
   xmlns:inkscape="http://www.inkscape.org/namespaces/inkscape"
   xmlns:sodipodi="http://sodipodi.sourceforge.net/DTD/sodipodi-0.dtd"
   xmlns="http://www.w3.org/2000/svg"
   xmlns:svg="http://www.w3.org/2000/svg">
  <sodipodi:namedview
     id="namedview7"
     pagecolor="#ffffff"
     bordercolor="#999999"
     borderopacity="1"
     inkscape:pageshadow="0"
     inkscape:pageopacity="0"
     inkscape:pagecheckerboard="0"
     inkscape:document-units="mm"
     showgrid="false"
     showguides="false"
     inkscape:guide-bbox="true"
     inkscape:zoom="0.69040128"
     inkscape:cx="337.48489"
     inkscape:cy="430.90882"
     inkscape:window-width="1366"
     inkscape:window-height="705"
     inkscape:window-x="-8"
     inkscape:window-y="-8"
     inkscape:window-maximized="1"
     inkscape:current-layer="layer1">
    <sodipodi:guide
       position="19.928024,311.5628"
       orientation="1,0"
       id="guide5642" />
    <sodipodi:guide
       position="-37.556661,253.69487"
       orientation="0,-1"
       id="guide5644" />
    <sodipodi:guide
       position="-10.538859,247.94641"
       orientation="0,-1"
       id="guide8062" />
    <sodipodi:guide
       position="-27.592648,205.79097"
       orientation="0,-1"
       id="guide18180" />
    <sodipodi:guide
       position="-31.42496,167.46785"
       orientation="0,-1"
       id="guide18182" />
    <sodipodi:guide
       position="-30.658498,151.37214"
       orientation="0,-1"
       id="guide18184" />
    <sodipodi:guide
       position="189.14781,308.3814"
       orientation="1,0"
       id="guide39982" />
  </sodipodi:namedview>
  <defs
     id="defs2" />
  <g
     inkscape:label="Layer 1"
     inkscape:groupmode="layer"
     id="layer1">
    <rect
       style="fill:#501616;stroke-width:0.0800846;stroke-linejoin:bevel"
       id="rect846"
       width="210"
       height="210"
       x="0"
       y="0" />
    <rect
       style="fill:#f4d7d7;fill-opacity:1;stroke-width:0.0481077;stroke-linejoin:bevel"
       id="rect982"
       width="210"
       height="75.779282"
       x="0"
       y="0" />
    <g
       aria-label="Serarif"
       id="text2058"
       style="font-size:36px;line-height:1.25;font-family:Serarif;-inkscape-font-specification:Serarif;stroke-width:0.264583"
       transform="translate(-8.8143184,-0.38323133)">
      <path
         d="m 36.05034,21.116362 q 1.62,0.18 2.952,1.08 1.332,0.9 2.088,2.34 l -2.268,1.44 q -0.396,-0.9 -1.224,-1.476 -0.792,-0.612 -1.8,-0.72 -1.512,-0.144 -2.7,0.828 -1.152,0.972 -1.296,2.484 0,0.144 0,0.324 0.252,1.008 1.116,1.8 0.9,0.792 1.98,1.404 1.116,0.576 2.232,1.26 1.152,0.648 2.124,1.728 1.008,1.044 1.476,2.412 0.216,0.972 0.108,1.944 -0.216,2.628 -2.232,4.32 -2.016,1.656 -4.644,1.404 -1.764,-0.18 -3.168,-1.188 -1.368,-1.008 -2.052,-2.592 l 2.304,-1.44 q 0.324,1.044 1.152,1.764 0.864,0.684 2.016,0.792 1.512,0.144 2.664,-0.828 1.188,-0.972 1.332,-2.484 0,-0.144 0,-0.324 0.144,-0.936 -0.54,-1.728 -0.648,-0.792 -1.836,-1.44 -1.152,-0.684 -2.412,-1.368 -1.26,-0.72 -2.448,-1.764 -1.188,-1.044 -1.692,-2.304 -0.216,-0.972 -0.144,-1.944 0.252,-2.592 2.268,-4.248 2.016,-1.692 4.644,-1.476 z"
         id="path5772" />
      <path
         d="m 45.482335,32.312362 q 1.944,-1.944 4.68,-1.944 2.772,0 4.716,1.944 1.98,1.944 1.98,4.716 v 1.332 h -10.44 q 0.396,1.188 1.44,1.944 1.044,0.756 2.34,0.756 1.584,0 2.736,-1.116 l 2.196,1.548 q -1.98,2.196 -4.932,2.196 -2.772,0 -4.716,-1.944 -1.944,-1.944 -1.944,-4.716 0,-2.772 1.944,-4.716 z m 6.984,1.476 q -1.008,-0.756 -2.304,-0.756 -1.26,0 -2.304,0.756 -1.008,0.72 -1.44,1.908 h 7.524 q -0.432,-1.188 -1.476,-1.908 z"
         id="path5774" />
      <path
         d="m 59.162266,30.368362 h 2.664 v 1.332 q 1.764,-1.332 3.996,-1.332 v 2.664 0 q -1.656,0 -2.844,1.188 -1.152,1.152 -1.152,2.808 v 6.66 h -2.664 v -6.66 z"
         id="path5776" />
      <path
         d="m 73.202195,30.368362 q 2.232,0 3.996,1.332 v -1.332 h 2.664 v 6.66 6.66 h -2.664 v -1.332 q -1.764,1.332 -3.996,1.332 -2.772,0 -4.716,-1.944 -1.944,-1.98 -1.944,-4.716 0,-2.772 1.944,-4.716 1.944,-1.944 4.716,-1.944 z m 2.808,3.852 q -1.152,-1.188 -2.808,-1.188 -1.656,0 -2.844,1.188 -1.152,1.152 -1.152,2.844 0,1.656 1.152,2.844 1.188,1.152 2.844,1.152 1.656,0 2.808,-1.152 1.188,-1.188 1.188,-2.844 0,-1.692 -1.188,-2.844 z"
         id="path5778" />
      <path
         d="m 82.202176,30.368362 h 2.664 v 1.332 q 1.764,-1.332 3.996,-1.332 v 2.664 0 q -1.656,0 -2.844,1.188 -1.152,1.152 -1.152,2.808 v 6.66 h -2.664 v -6.66 z"
         id="path5780" />
      <path
         d="m 90.842168,43.688362 v -13.32 h 2.664 v 13.32 z m 0.396,-15.048 q -0.396,-0.396 -0.396,-0.936 0,-0.576 0.396,-0.936 0.396,-0.396 0.936,-0.396 0.54,0 0.936,0.396 0.396,0.36 0.396,0.936 0,0.54 -0.396,0.936 -0.396,0.396 -0.936,0.396 -0.54,0 -0.936,-0.396 z"
         id="path5782" />
      <path
         d="m 103.33415,21.008362 h 2.232 v 2.664 h -2.232 q -0.828,0 -1.44,0.612 -0.576,0.576 -0.576,1.404 v 4.212 0.468 h 2.664 v 2.664 h -2.664 v 10.656 h -2.663995 v -10.656 h -2.664 v -2.664 h 2.664 v -4.68 q 0,-1.944 1.367995,-3.312 1.368,-1.368 3.312,-1.368 z"
         id="path5784" />
    </g>
    <g
       aria-label="Remastered"
       id="text6797"
       style="font-size:12px;line-height:1.25;font-family:Serarif;-inkscape-font-specification:Serarif;stroke-width:0.264583"
       transform="translate(-6.5149291,0.27860265)">
      <path
         d="m 26.442953,48.774988 h 0.888 1.332 v 0.012 q 0.756,0.084 1.26,0.66 0.516,0.564 0.516,1.332 0,0.768 -0.516,1.344 -0.504,0.564 -1.26,0.648 v 0.012 h -0.96 l 2.928,2.928 -0.636,0.624 -2.664,-2.664 v 2.664 h -0.888 z m 0.888,0.888 v 2.232 h 1.332 v -0.024 q 0.384,-0.084 0.636,-0.384 0.252,-0.312 0.252,-0.708 0,-0.396 -0.252,-0.696 -0.252,-0.312 -0.636,-0.396 v -0.024 z"
         id="path8023" />
      <path
         d="m 31.854952,52.542988 q 0.648,-0.648 1.56,-0.648 0.924,0 1.572,0.648 0.66,0.648 0.66,1.572 v 0.444 h -3.48 q 0.132,0.396 0.48,0.648 0.348,0.252 0.78,0.252 0.528,0 0.912,-0.372 l 0.732,0.516 q -0.66,0.732 -1.644,0.732 -0.924,0 -1.572,-0.648 -0.648,-0.648 -0.648,-1.572 0,-0.924 0.648,-1.572 z m 2.328,0.492 q -0.336,-0.252 -0.768,-0.252 -0.42,0 -0.768,0.252 -0.336,0.24 -0.48,0.636 h 2.508 q -0.144,-0.396 -0.492,-0.636 z"
         id="path8025" />
      <path
         d="m 36.402929,51.894988 h 0.888 v 0.444 q 0.6,-0.444 1.332,-0.444 0.54,0 1.008,0.24 0.468,0.228 0.78,0.648 0.3,-0.42 0.768,-0.648 0.468,-0.24 1.008,-0.24 0.912,0 1.56,0.648 0.66,0.648 0.66,1.572 v 2.22 h -0.888 v -2.22 q -0.012,-0.552 -0.396,-0.936 -0.384,-0.396 -0.936,-0.396 -0.552,0 -0.948,0.396 -0.384,0.384 -0.384,0.936 v 0 2.22 h -0.9 v -2.22 q 0,-0.552 -0.396,-0.936 -0.384,-0.396 -0.936,-0.396 -0.54,0 -0.936,0.396 -0.384,0.384 -0.396,0.936 v 2.22 h -0.888 z"
         id="path8027" />
      <path
         d="m 47.490917,51.894988 q 0.744,0 1.332,0.444 v -0.444 h 0.888 v 2.22 2.22 h -0.888 v -0.444 q -0.588,0.444 -1.332,0.444 -0.924,0 -1.572,-0.648 -0.648,-0.66 -0.648,-1.572 0,-0.924 0.648,-1.572 0.648,-0.648 1.572,-0.648 z m 0.936,1.284 q -0.384,-0.396 -0.936,-0.396 -0.552,0 -0.948,0.396 -0.384,0.384 -0.384,0.948 0,0.552 0.384,0.948 0.396,0.384 0.948,0.384 0.552,0 0.936,-0.384 0.396,-0.396 0.396,-0.948 0,-0.564 -0.396,-0.948 z"
         id="path8029" />
      <path
         d="m 51.82291,51.894988 q 0.408,0 0.732,0.228 0.336,0.216 0.492,0.576 l -0.816,0.348 q -0.12,-0.264 -0.408,-0.264 -0.18,0 -0.312,0.132 -0.132,0.132 -0.132,0.312 0,0.18 0.132,0.312 0.132,0.132 0.312,0.132 0.552,0 0.936,0.396 0.396,0.384 0.396,0.936 0,0.552 -0.396,0.948 -0.384,0.384 -0.936,0.384 -0.408,0 -0.744,-0.216 -0.324,-0.228 -0.48,-0.588 l 0.816,-0.348 q 0.12,0.264 0.408,0.264 0.18,0 0.312,-0.132 0.132,-0.132 0.132,-0.312 0,-0.18 -0.132,-0.312 -0.132,-0.132 -0.312,-0.132 -0.552,0 -0.948,-0.384 -0.384,-0.396 -0.384,-0.948 0,-0.552 0.384,-0.936 0.396,-0.396 0.948,-0.396 z"
         id="path8031" />
      <path
         d="m 54.714909,51.006988 h 0.888 v 0.888 h 0.888 v 0.888 h -0.888 v 3.552 h -0.888 v -3.552 h -0.888 v -0.888 h 0.888 z"
         id="path8033" />
      <path
         d="m 57.822901,52.542988 q 0.648,-0.648 1.56,-0.648 0.924,0 1.572,0.648 0.66,0.648 0.66,1.572 v 0.444 h -3.48 q 0.132,0.396 0.48,0.648 0.348,0.252 0.78,0.252 0.528,0 0.912,-0.372 l 0.732,0.516 q -0.66,0.732 -1.644,0.732 -0.924,0 -1.572,-0.648 -0.648,-0.648 -0.648,-1.572 0,-0.924 0.648,-1.572 z m 2.328,0.492 q -0.336,-0.252 -0.768,-0.252 -0.42,0 -0.768,0.252 -0.336,0.24 -0.48,0.636 h 2.508 q -0.144,-0.396 -0.492,-0.636 z"
         id="path8035" />
      <path
         d="m 62.382878,51.894988 h 0.888 v 0.444 q 0.588,-0.444 1.332,-0.444 v 0.888 0 q -0.552,0 -0.948,0.396 -0.384,0.384 -0.384,0.936 v 2.22 h -0.888 v -2.22 z"
         id="path8037" />
      <path
         d="m 65.73086,52.542988 q 0.648,-0.648 1.56,-0.648 0.924,0 1.572,0.648 0.66,0.648 0.66,1.572 v 0.444 h -3.48 q 0.132,0.396 0.48,0.648 0.348,0.252 0.78,0.252 0.528,0 0.912,-0.372 l 0.732,0.516 q -0.66,0.732 -1.644,0.732 -0.924,0 -1.572,-0.648 -0.648,-0.648 -0.648,-1.572 0,-0.924 0.648,-1.572 z m 2.328,0.492 q -0.336,-0.252 -0.768,-0.252 -0.42,0 -0.768,0.252 -0.336,0.24 -0.48,0.636 h 2.508 q -0.144,-0.396 -0.492,-0.636 z"
         id="path8039" />
      <path
         d="m 73.842837,48.774988 h 0.888 v 5.328 2.22 h -0.888 v -0.444 q -0.588,0.444 -1.332,0.444 -0.924,0 -1.572,-0.648 -0.648,-0.648 -0.648,-1.572 0,-0.924 0.648,-1.572 0.648,-0.648 1.572,-0.648 0.744,0 1.332,0.444 z m -0.396,4.392 q -0.384,-0.396 -0.936,-0.396 -0.552,0 -0.948,0.396 -0.384,0.384 -0.384,0.948 0,0.552 0.384,0.948 0.396,0.384 0.948,0.384 0.552,0 0.936,-0.384 0.396,-0.396 0.396,-0.948 0,-0.564 -0.396,-0.948 z"
         id="path8041" />
    </g>
    <g
       aria-label="Aa Bb Cc"
       id="text9232"
       style="font-size:18px;line-height:1.25;font-family:Serarif;-inkscape-font-specification:Serarif;fill:#501616;stroke-width:0.264583"
       transform="translate(-6.879167)">
      <path
         d="m 143.57984,53.060851 h 2.016 l 2.934,10.98 -1.278,0.342 -1.44,-5.328 h -2.448 l -1.422,5.328 -1.296,-0.342 z m 1.008,1.422 -0.864,3.24 h 1.728 z"
         id="path19857" />
      <path
         d="m 152.92181,57.722851 q 1.116,0 1.998,0.666 v -0.666 h 1.332 v 3.33 3.33 h -1.332 v -0.666 q -0.882,0.666 -1.998,0.666 -1.386,0 -2.358,-0.972 -0.972,-0.99 -0.972,-2.358 0,-1.386 0.972,-2.358 0.972,-0.972 2.358,-0.972 z m 1.404,1.926 q -0.576,-0.594 -1.404,-0.594 -0.828,0 -1.422,0.594 -0.576,0.576 -0.576,1.422 0,0.828 0.576,1.422 0.594,0.576 1.422,0.576 0.828,0 1.404,-0.576 0.594,-0.594 0.594,-1.422 0,-0.846 -0.594,-1.422 z"
         id="path19859" />
      <path
         d="m 161.95778,53.042851 h 1.332 1.998 v 0.018 q 1.134,0.126 1.89,0.99 0.774,0.846 0.774,1.998 0,1.278 -0.918,2.16 0.72,0.45 1.152,1.206 0.432,0.756 0.432,1.638 0,1.368 -0.972,2.358 -0.972,0.972 -2.358,0.972 h -1.998 -1.332 z m 1.332,1.332 v 3.348 h 1.998 v -0.036 q 0.576,-0.126 0.954,-0.576 0.378,-0.468 0.378,-1.062 0,-0.594 -0.378,-1.044 -0.378,-0.468 -0.954,-0.594 v -0.036 z m 0,4.68 v 3.996 h 1.998 q 0.828,0 1.404,-0.576 0.594,-0.594 0.594,-1.422 0,-0.828 -0.594,-1.404 -0.576,-0.594 -1.404,-0.594 z"
         id="path19861" />
      <path
         d="m 169.73376,53.042851 h 1.332 v 5.346 q 0.882,-0.666 1.998,-0.666 1.386,0 2.358,0.972 0.972,0.972 0.972,2.358 0,1.368 -0.972,2.358 -0.972,0.972 -2.358,0.972 -1.116,0 -1.998,-0.666 v 0.666 h -1.332 v -3.33 z m 4.734,6.606 q -0.576,-0.594 -1.404,-0.594 -0.828,0 -1.422,0.594 -0.576,0.576 -0.576,1.422 0,0.828 0.576,1.422 0.594,0.576 1.422,0.576 0.828,0 1.404,-0.576 0.594,-0.594 0.594,-1.422 0,-0.846 -0.594,-1.422 z"
         id="path19863" />
      <path
         d="m 185.95171,53.042851 q 1.638,0 2.808,1.62 l -1.062,0.774 q -0.756,-1.062 -1.746,-1.062 -1.098,0 -1.89,1.278 -0.774,1.278 -0.774,3.078 0,1.782 0.774,3.06 0.792,1.26 1.89,1.26 0.918,0 1.638,-0.918 l 1.08,0.72 q -1.152,1.53 -2.718,1.53 -1.656,0 -2.826,-1.656 -1.17,-1.674 -1.17,-4.014 0,-2.34 1.17,-3.996 1.17,-1.674 2.826,-1.674 z"
         id="path19865" />
      <path
         d="m 193.29568,57.722851 q 1.476,0 2.466,1.098 l -1.098,0.774 q -0.576,-0.54 -1.368,-0.54 -0.828,0 -1.422,0.594 -0.576,0.576 -0.576,1.422 0,0.828 0.576,1.422 0.594,0.576 1.422,0.576 0.792,0 1.368,-0.558 l 1.098,0.774 q -0.99,1.098 -2.466,1.098 -1.386,0 -2.358,-0.972 -0.972,-0.972 -0.972,-2.358 0,-1.386 0.972,-2.358 0.972,-0.972 2.358,-0.972 z"
         id="path19867" />
    </g>
    <g
       aria-label="The quick brown fox jumps
over the lazy dog"
       id="text14680"
       style="font-size:18px;line-height:1.25;font-family:Serarif;-inkscape-font-specification:Serarif;stroke-width:0.264583">
      <path
         d="m 19.928024,90.982731 h 6.66 v 1.332 h -2.664 v 10.007999 h -1.332 V 92.314731 h -2.664 z"
         style="fill:#e9afaf"
         id="path18186" />
      <path
         d="m 27.848,90.982731 h 1.332 v 5.346 q 0.882,-0.666 1.998,-0.666 1.386,0 2.358,0.972 0.972,0.972 0.972,2.358 v 3.329999 h -1.332 v -3.329999 q 0,-0.828 -0.594,-1.404 -0.576,-0.594 -1.404,-0.594 -0.828,0 -1.422,0.594 -0.576,0.576 -0.576,1.404 v 3.329999 h -1.332 z"
         style="fill:#e9afaf"
         id="path18188" />
      <path
         d="m 36.68598,96.634731 q 0.972,-0.972 2.34,-0.972 1.386,0 2.358,0.972 0.99,0.972 0.99,2.358 v 0.666 h -5.22 q 0.198,0.593999 0.72,0.971999 0.522,0.378 1.17,0.378 0.792,0 1.368,-0.558 l 1.098,0.774 q -0.99,1.098 -2.466,1.098 -1.386,0 -2.358,-0.972 -0.972,-0.972 -0.972,-2.357999 0,-1.386 0.972,-2.358 z m 3.492,0.738 q -0.504,-0.378 -1.152,-0.378 -0.63,0 -1.152,0.378 -0.504,0.36 -0.72,0.954 h 3.762 q -0.216,-0.594 -0.738,-0.954 z"
         style="fill:#e9afaf"
         id="path18190" />
      <path
         d="m 51.391916,95.662731 q 1.116,0 1.998,0.666 v -0.666 h 1.332 v 3.24 q 0,0.054 0,0.09 0,0.036 0,0.09 v 7.901999 h -1.332 v -5.328 q -0.882,0.666 -1.998,0.666 -1.368,0 -2.358,-0.972 -0.972,-0.972 -0.972,-2.357999 0,-1.386 0.972,-2.358 0.99,-0.972 2.358,-0.972 z m 1.404,1.926 q -0.576,-0.594 -1.404,-0.594 -0.828,0 -1.422,0.594 -0.576,0.576 -0.576,1.422 0,0.828 0.576,1.421999 0.594,0.576 1.422,0.576 0.828,0 1.404,-0.576 0.594,-0.593999 0.594,-1.421999 0,-0.846 -0.594,-1.422 z"
         style="fill:#e9afaf"
         id="path18192" />
      <path
         d="m 55.747893,95.662731 h 1.332 v 3.33 q 0,0.828 0.576,1.421999 0.594,0.576 1.422,0.576 0.828,0 1.404,-0.576 0.594,-0.593999 0.594,-1.421999 v -3.33 h 1.332 v 3.33 3.329999 h -1.332 v -0.666 q -0.882,0.666 -1.998,0.666 -1.386,0 -2.358,-0.972 -0.972,-0.99 -0.972,-2.357999 z"
         style="fill:#e9afaf"
         id="path18194" />
      <path
         d="m 63.757887,102.32273 v -6.659999 h 1.332 v 6.659999 z m 0.198,-7.523999 q -0.198,-0.198 -0.198,-0.468 0,-0.288 0.198,-0.468 0.198,-0.198 0.468,-0.198 0.27,0 0.468,0.198 0.198,0.18 0.198,0.468 0,0.27 -0.198,0.468 -0.198,0.198 -0.468,0.198 -0.27,0 -0.468,-0.198 z"
         style="fill:#e9afaf"
         id="path18196" />
      <path
         d="m 69.661881,95.662731 q 1.476,0 2.466,1.098 l -1.098,0.774 q -0.576,-0.54 -1.368,-0.54 -0.828,0 -1.422,0.594 -0.576,0.576 -0.576,1.422 0,0.828 0.576,1.421999 0.594,0.576 1.422,0.576 0.792,0 1.368,-0.558 l 1.098,0.774 q -0.99,1.098 -2.466,1.098 -1.386,0 -2.358,-0.972 -0.972,-0.972 -0.972,-2.357999 0,-1.386 0.972,-2.358 0.972,-0.972 2.358,-0.972 z"
         style="fill:#e9afaf"
         id="path18198" />
      <path
         d="m 73.477859,90.982731 h 1.332 v 6.678 l 2.016,-1.998 0.936,0.936 -2.052,2.052 2.718,2.735999 -0.936,0.936 -2.682,-2.663999 v 2.663999 h -1.332 z"
         style="fill:#e9afaf"
         id="path18200" />
      <path
         d="m 83.665825,90.982731 h 1.332 v 5.346 q 0.882,-0.666 1.998,-0.666 1.386,0 2.358,0.972 0.972,0.972 0.972,2.358 0,1.367999 -0.972,2.357999 -0.972,0.972 -2.358,0.972 -1.116,0 -1.998,-0.666 v 0.666 h -1.332 v -3.329999 z m 4.734,6.606 q -0.576,-0.594 -1.404,-0.594 -0.828,0 -1.422,0.594 -0.576,0.576 -0.576,1.422 0,0.828 0.576,1.421999 0.594,0.576 1.422,0.576 0.828,0 1.404,-0.576 0.594,-0.593999 0.594,-1.421999 0,-0.846 -0.594,-1.422 z"
         style="fill:#e9afaf"
         id="path18202" />
      <path
         d="m 91.351801,95.662731 h 1.332 v 0.666 q 0.882,-0.666 1.998,-0.666 v 1.332 0 q -0.828,0 -1.422,0.594 -0.576,0.576 -0.576,1.404 v 3.329999 h -1.332 v -3.329999 z"
         style="fill:#e9afaf"
         id="path18204" />
      <path
         d="m 96.373774,96.634731 q 0.972,-0.972 2.34,-0.972 1.385996,0 2.357996,0.972 0.99,0.972 0.99,2.358 0,1.385999 -0.99,2.357999 -0.972,0.972 -2.357996,0.972 -1.368,0 -2.34,-0.972 -0.972,-0.972 -0.972,-2.357999 0,-1.386 0.972,-2.358 z m 3.761996,0.954 q -0.575996,-0.594 -1.403996,-0.594 -0.828,0 -1.422,0.594 -0.576,0.576 -0.576,1.422 0,0.828 0.576,1.421999 0.594,0.576 1.422,0.576 0.828,0 1.403996,-0.576 0.594,-0.593999 0.594,-1.421999 0,-0.846 -0.594,-1.422 z"
         style="fill:#e9afaf"
         id="path18206" />
      <path
         d="m 103.35774,95.662731 2.898,5.039999 0.9,-1.565999 -1.62,-2.808 1.152,-0.666 1.242,2.142 1.242,-2.142 1.152,0.666 -1.62,2.808 0.882,1.565999 2.916,-5.039999 1.152,0.666 -3.456,5.993999 h -1.206 l -1.062,-1.836 -1.062,1.836 h -1.206 l -3.474,-5.993999 z"
         style="fill:#e9afaf"
         id="path18208" />
      <path
         d="m 114.58974,95.662731 h 1.332 v 0.666 q 0.882,-0.666 1.998,-0.666 1.368,0 2.34,0.972 0.99,0.972 0.99,2.358 v 3.329999 h -1.332 v -3.329999 q -0.018,-0.828 -0.594,-1.404 -0.576,-0.594 -1.404,-0.594 -0.828,0 -1.422,0.594 -0.576,0.576 -0.576,1.404 v 3.329999 h -1.332 v -3.329999 z"
         style="fill:#e9afaf"
         id="path18210" />
      <path
         d="m 130.75371,90.982731 h 1.116 v 1.332 h -1.116 q -0.414,0 -0.72,0.306 -0.288,0.288 -0.288,0.702 v 2.106 0.234 h 1.332 v 1.332 h -1.332 v 5.327999 h -1.332 v -5.327999 h -1.332 v -1.332 h 1.332 v -2.34 q 0,-0.972 0.684,-1.656 0.684,-0.684 1.656,-0.684 z"
         style="fill:#e9afaf"
         id="path18212" />
      <path
         d="m 132.6977,96.634731 q 0.972,-0.972 2.34,-0.972 1.386,0 2.358,0.972 0.99,0.972 0.99,2.358 0,1.385999 -0.99,2.357999 -0.972,0.972 -2.358,0.972 -1.368,0 -2.34,-0.972 -0.972,-0.972 -0.972,-2.357999 0,-1.386 0.972,-2.358 z m 3.762,0.954 q -0.576,-0.594 -1.404,-0.594 -0.828,0 -1.422,0.594 -0.576,0.576 -0.576,1.422 0,0.828 0.576,1.421999 0.594,0.576 1.422,0.576 0.828,0 1.404,-0.576 0.594,-0.593999 0.594,-1.421999 0,-0.846 -0.594,-1.422 z"
         style="fill:#e9afaf"
         id="path18214" />
      <path
         d="m 139.62764,95.680731 2.376,2.376 2.376,-2.376 0.954,0.954 -2.376,2.376 2.376,2.375999 -0.954,0.936 -2.376,-2.375999 -2.376,2.375999 -0.936,-0.936 2.376,-2.375999 -2.376,-2.376 z"
         style="fill:#e9afaf"
         id="path18216" />
      <path
         d="m 151.88561,95.662731 h 1.332 v 8.657999 h -0.036 q 0.036,0.18 0.036,0.342 0,0.972 -0.684,1.656 -0.684,0.684 -1.656,0.684 v -1.332 q 0.414,0 0.702,-0.306 0.306,-0.288 0.306,-0.702 v -0.342 -1.764 z m 0.18,-0.864 q -0.18,-0.198 -0.18,-0.468 0,-0.27 0.18,-0.468 0.198,-0.198 0.468,-0.198 0.288,0 0.486,0.198 0.198,0.198 0.198,0.468 0,0.27 -0.198,0.468 -0.198,0.198 -0.486,0.198 -0.27,0 -0.468,-0.198 z"
         style="fill:#e9afaf"
         id="path18218" />
      <path
         d="m 154.5316,95.662731 h 1.332 v 3.33 q 0,0.828 0.576,1.421999 0.594,0.576 1.422,0.576 0.828,0 1.404,-0.576 0.594,-0.593999 0.594,-1.421999 v -3.33 h 1.332 v 3.33 3.329999 h -1.332 v -0.666 q -0.882,0.666 -1.998,0.666 -1.386,0 -2.358,-0.972 -0.972,-0.99 -0.972,-2.357999 z"
         style="fill:#e9afaf"
         id="path18220" />
      <path
         d="m 162.52359,95.662731 h 1.332 v 0.666 q 0.9,-0.666 1.998,-0.666 0.81,0 1.512,0.36 0.702,0.342 1.17,0.972 0.45,-0.63 1.152,-0.972 0.702,-0.36 1.512,-0.36 1.368,0 2.34,0.972 0.99,0.972 0.99,2.358 v 3.329999 h -1.332 v -3.329999 q -0.018,-0.828 -0.594,-1.404 -0.576,-0.594 -1.404,-0.594 -0.828,0 -1.422,0.594 -0.576,0.576 -0.576,1.404 v 0 3.329999 h -1.35 v -3.329999 q 0,-0.828 -0.594,-1.404 -0.576,-0.594 -1.404,-0.594 -0.81,0 -1.404,0.594 -0.576,0.576 -0.594,1.404 v 3.329999 h -1.332 z"
         style="fill:#e9afaf"
         id="path18222" />
      <path
         d="m 175.80757,95.662731 h 1.332 v 0.666 q 0.882,-0.666 1.998,-0.666 1.386,0 2.358,0.99 0.972,0.972 0.972,2.358 0,1.367999 -0.972,2.339999 -0.972,0.972 -2.358,0.972 -1.116,0 -1.998,-0.666 v 5.346 h -1.332 z m 4.734,1.926 q -0.576,-0.594 -1.404,-0.594 -0.828,0 -1.422,0.594 -0.576,0.594 -0.576,1.422 0,0.828 0.576,1.421999 0.594,0.594 1.422,0.594 0.828,0 1.404,-0.594 0.594,-0.593999 0.594,-1.421999 0,-0.828 -0.594,-1.422 z"
         style="fill:#e9afaf"
         id="path18224" />
      <path
         d="m 184.86155,95.662731 q 0.612,0 1.098,0.342 0.504,0.324 0.738,0.864 l -1.224,0.522 q -0.18,-0.396 -0.612,-0.396 -0.27,0 -0.468,0.198 -0.198,0.198 -0.198,0.468 0,0.27 0.198,0.468 0.198,0.198 0.468,0.198 0.828,0 1.404,0.594 0.594,0.576 0.594,1.403999 0,0.828 -0.594,1.422 -0.576,0.576 -1.404,0.576 -0.612,0 -1.116,-0.324 -0.486,-0.342 -0.72,-0.882 l 1.224,-0.522 q 0.18,0.396 0.612,0.396 0.27,0 0.468,-0.198 0.198,-0.198 0.198,-0.468 0,-0.27 -0.198,-0.467999 -0.198,-0.198 -0.468,-0.198 -0.828,0 -1.422,-0.576 -0.576,-0.594 -0.576,-1.422 0,-0.828 0.576,-1.404 0.594,-0.594 1.422,-0.594 z"
         style="fill:#e9afaf"
         id="path18226" />
      <path
         d="m 20.918024,119.13473 q 0.972,-0.972 2.34,-0.972 1.386,0 2.358,0.972 0.99,0.972 0.99,2.358 0,1.386 -0.99,2.358 -0.972,0.972 -2.358,0.972 -1.368,0 -2.34,-0.972 -0.972,-0.972 -0.972,-2.358 0,-1.386 0.972,-2.358 z m 3.762,0.954 q -0.576,-0.594 -1.404,-0.594 -0.828,0 -1.422,0.594 -0.576,0.576 -0.576,1.422 0,0.828 0.576,1.422 0.594,0.576 1.422,0.576 0.828,0 1.404,-0.576 0.594,-0.594 0.594,-1.422 0,-0.846 -0.594,-1.422 z"
         style="fill:#e9afaf"
         id="path18228" />
      <path
         d="m 27.883995,118.16273 2.916,5.04 2.898,-5.04 1.152,0.666 -3.456,5.994 h -1.206 l -3.456,-5.994 z"
         style="fill:#e9afaf"
         id="path18230" />
      <path
         d="m 36.073973,119.13473 q 0.972,-0.972 2.34,-0.972 1.386,0 2.358,0.972 0.99,0.972 0.99,2.358 v 0.666 h -5.22 q 0.198,0.594 0.72,0.972 0.522,0.378 1.17,0.378 0.792,0 1.368,-0.558 l 1.098,0.774 q -0.99,1.098 -2.466,1.098 -1.386,0 -2.358,-0.972 -0.972,-0.972 -0.972,-2.358 0,-1.386 0.972,-2.358 z m 3.492,0.738 q -0.504,-0.378 -1.152,-0.378 -0.63,0 -1.152,0.378 -0.504,0.36 -0.72,0.954 h 3.762 q -0.216,-0.594 -0.738,-0.954 z"
         style="fill:#e9afaf"
         id="path18232" />
      <path
         d="m 42.913939,118.16273 h 1.332 v 0.666 q 0.882,-0.666 1.998,-0.666 v 1.332 0 q -0.828,0 -1.422,0.594 -0.576,0.576 -0.576,1.404 v 3.33 h -1.332 v -3.33 z"
         style="fill:#e9afaf"
         id="path18234" />
      <path
         d="m 53.119905,116.83073 h 1.332 v 1.332 h 1.332 v 1.332 h -1.332 v 5.328 h -1.332 v -5.328 h -1.332 v -1.332 h 1.332 z"
         style="fill:#e9afaf"
         id="path18236" />
      <path
         d="m 56.791893,113.48273 h 1.332 v 5.346 q 0.882,-0.666 1.998,-0.666 1.386,0 2.358,0.972 0.972,0.972 0.972,2.358 v 3.33 h -1.332 v -3.33 q 0,-0.828 -0.594,-1.404 -0.576,-0.594 -1.404,-0.594 -0.828,0 -1.422,0.594 -0.576,0.576 -0.576,1.404 v 3.33 h -1.332 z"
         style="fill:#e9afaf"
         id="path18238" />
      <path
         d="m 65.629874,119.13473 q 0.972,-0.972 2.34,-0.972 1.386,0 2.358,0.972 0.99,0.972 0.99,2.358 v 0.666 h -5.22 q 0.198,0.594 0.72,0.972 0.522,0.378 1.17,0.378 0.792,0 1.368,-0.558 l 1.098,0.774 q -0.99,1.098 -2.466,1.098 -1.386,0 -2.358,-0.972 -0.972,-0.972 -0.972,-2.358 0,-1.386 0.972,-2.358 z m 3.492,0.738 q -0.504,-0.378 -1.152,-0.378 -0.63,0 -1.152,0.378 -0.504,0.36 -0.72,0.954 h 3.762 q -0.216,-0.594 -0.738,-0.954 z"
         style="fill:#e9afaf"
         id="path18240" />
      <path
         d="m 77.02381,113.48273 h 1.332 v 11.34 h -1.332 z"
         style="fill:#e9afaf"
         id="path18242" />
      <path
         d="m 82.981808,118.16273 q 1.116,0 1.998,0.666 v -0.666 h 1.332 v 3.33 3.33 h -1.332 v -0.666 q -0.882,0.666 -1.998,0.666 -1.386,0 -2.358,-0.972 -0.972,-0.99 -0.972,-2.358 0,-1.386 0.972,-2.358 0.972,-0.972 2.358,-0.972 z m 1.404,1.926 q -0.576,-0.594 -1.404,-0.594 -0.828,0 -1.422,0.594 -0.576,0.576 -0.576,1.422 0,0.828 0.576,1.422 0.594,0.576 1.422,0.576 0.828,0 1.404,-0.576 0.594,-0.594 0.594,-1.422 0,-0.846 -0.594,-1.422 z"
         style="fill:#e9afaf"
         id="path18244" />
      <path
         d="m 87.463799,118.16273 h 5.886 v 0.612 q 0,0 0,0.72 l -3.996,3.996 h 3.996 v 1.332 h -5.886 v -1.332 l 3.996,-3.996 h -3.996 z"
         style="fill:#e9afaf"
         id="path18246" />
      <path
         d="m 95.815788,118.19873 3.33,5.778 3.348002,-5.778 1.152,0.666 -6.066002,10.476 -1.152,-0.666 1.962,-3.366 -3.726,-6.444 z"
         style="fill:#e9afaf"
         id="path18248" />
      <path
         d="m 114.67973,113.48273 h 1.332 v 7.992 3.33 h -1.332 v -0.666 q -0.882,0.666 -1.998,0.666 -1.386,0 -2.358,-0.972 -0.972,-0.972 -0.972,-2.358 0,-1.386 0.972,-2.358 0.972,-0.972 2.358,-0.972 1.116,0 1.998,0.666 z m -0.594,6.588 q -0.576,-0.594 -1.404,-0.594 -0.828,0 -1.422,0.594 -0.576,0.576 -0.576,1.422 0,0.828 0.576,1.422 0.594,0.576 1.422,0.576 0.828,0 1.404,-0.576 0.594,-0.594 0.594,-1.422 0,-0.846 -0.594,-1.422 z"
         style="fill:#e9afaf"
         id="path18250" />
      <path
         d="m 118.09972,119.13473 q 0.972,-0.972 2.34,-0.972 1.386,0 2.358,0.972 0.99,0.972 0.99,2.358 0,1.386 -0.99,2.358 -0.972,0.972 -2.358,0.972 -1.368,0 -2.34,-0.972 -0.972,-0.972 -0.972,-2.358 0,-1.386 0.972,-2.358 z m 3.762,0.954 q -0.576,-0.594 -1.404,-0.594 -0.828,0 -1.422,0.594 -0.576,0.576 -0.576,1.422 0,0.828 0.576,1.422 0.594,0.576 1.422,0.576 0.828,0 1.404,-0.576 0.594,-0.594 0.594,-1.422 0,-0.846 -0.594,-1.422 z"
         style="fill:#e9afaf"
         id="path18252" />
      <path
         d="m 128.07169,118.16273 q 1.116,0 1.998,0.666 v -0.666 h 1.332 v 3.24 q 0,0.054 0,0.09 0,0.036 0,0.09 v 4.572 q 0,1.386 -0.972,2.358 -0.972,0.99 -2.358,0.99 -1.476,0 -2.466,-1.098 l 1.098,-0.792 q 0.576,0.576 1.368,0.576 0.828,0 1.404,-0.594 0.594,-0.594 0.594,-1.422 v 0 0 0 0 -0.018 -1.998 q -0.882,0.666 -1.998,0.666 -1.386,0 -2.358,-0.972 -0.972,-0.972 -0.972,-2.358 0,-1.386 0.972,-2.358 0.972,-0.972 2.358,-0.972 z m 1.404,1.926 q -0.576,-0.594 -1.404,-0.594 -0.828,0 -1.422,0.594 -0.576,0.594 -0.576,1.422 0,0.828 0.576,1.422 0.594,0.594 1.422,0.594 0.828,0 1.404,-0.594 0.594,-0.594 0.594,-1.422 0,-0.828 -0.594,-1.422 z"
         style="fill:#e9afaf"
         id="path18254" />
    </g>
    <g
       aria-label="123.465.789,0"
       id="text25410"
       style="font-size:18px;line-height:1.25;font-family:Serarif;-inkscape-font-specification:Serarif;fill:#e9afaf;stroke-width:0.264583"
       transform="translate(-50.987757,-8.7157699)">
      <path
         d="m 73.219781,154.59913 h 1.332 v 11.34 h -1.332 v -9.792 l -1.638,0.954 -0.666,-1.17 z"
         id="path26828"
         style="fill:#e9afaf" />
      <path
         d="m 78.619766,154.59913 q 1.152,0 2.034,0.792 0.9,0.792 0.936,1.89 0,0.342 -0.036,0.63 -0.036,0.288 -0.072,0.468 -0.036,0.18 -0.162,0.432 -0.126,0.252 -0.18,0.36 -0.054,0.09 -0.252,0.396 -0.198,0.306 -0.27,0.414 l -3.348,4.626 h 4.338 v 1.332 h -5.994 v -1.332 l 3.798,-5.22 q 0.072,-0.108 0.252,-0.342 0.18,-0.252 0.252,-0.378 0.09,-0.144 0.18,-0.36 0.108,-0.234 0.144,-0.468 0.036,-0.252 0,-0.558 -0.108,-0.594 -0.576,-0.972 -0.45,-0.378 -1.044,-0.378 -0.702,0 -1.188,0.504 -0.486,0.486 -0.486,1.17 0,0.072 0.018,0.162 l -1.35,-0.198 q 0.018,-1.242 0.882,-2.106 0.882,-0.864 2.124,-0.864 z"
         id="path26830"
         style="fill:#e9afaf" />
      <path
         d="m 85.117731,154.59913 q 1.242,0 2.124,0.882 0.882,0.882 0.882,2.124 0,1.386 -1.062,2.286 0.648,0.468 1.008,1.188 0.378,0.702 0.378,1.53 0,1.368 -0.972,2.358 -0.972,0.972 -2.358,0.972 -1.566,0 -2.556,-1.206 l 1.026,-0.846 q 0.594,0.72 1.53,0.72 0.828,0 1.404,-0.576 0.594,-0.594 0.594,-1.422 0,-0.828 -0.594,-1.404 -0.576,-0.594 -1.404,-0.594 h -0.666 v -1.332 h 0.666 q 0.684,0 1.17,-0.486 0.504,-0.504 0.504,-1.188 0,-0.684 -0.504,-1.17 -0.486,-0.504 -1.17,-0.504 -0.504,0.018 -0.918,0.288 -0.414,0.27 -0.594,0.72 l -1.242,-0.504 q 0.342,-0.81 1.08,-1.314 0.756,-0.504 1.674,-0.522 z"
         id="path26832"
         style="fill:#e9afaf" />
      <path
         d="m 89.581725,165.93913 v -1.332 h 1.332 v 1.332 z"
         id="path26834"
         style="fill:#e9afaf" />
      <path
         d="m 91.903698,154.59913 h 1.332 v 2.7 q 0,0.576 -0.144,1.08 -0.144,0.486 -0.27,0.684 l -0.144,0.216 h 2.556 v -3.348 h 1.332 v 3.348 h 1.332 v 1.332 h -1.332 v 5.328 h -1.332 v -5.328 h -1.998 -1.332 -0.666 v -1.332 q 0.072,-0.108 0.18,-0.288 0.108,-0.18 0.288,-0.702 0.198,-0.522 0.198,-1.008 z"
         id="path26836"
         style="fill:#e9afaf" />
      <path
         d="m 104.86367,154.59913 1.026,0.846 -3.15,3.834 q 1.332,0.072 2.232,1.044 0.918,0.954 0.918,2.286 0,1.386 -0.972,2.358 -0.972,0.972 -2.358,0.972 -1.386,0 -2.358,-0.972 -0.972002,-0.972 -0.972002,-2.358 0.018,-1.224 1.188002,-2.592 z m -0.9,6.606 q -0.576,-0.594 -1.404,-0.594 -0.828,0 -1.422,0.594 -0.576,0.576 -0.576,1.404 0,0.828 0.576,1.422 0.594,0.576 1.422,0.576 0.828,0 1.404,-0.576 0.594,-0.594 0.594,-1.422 0,-0.828 -0.594,-1.404 z"
         id="path26838"
         style="fill:#e9afaf" />
      <path
         d="m 107.18566,154.59913 h 5.994 v 1.332 h -4.662 v 2.556 q 0.936,-0.54 1.998,-0.54 1.656,0 2.826,1.17 1.17,1.17 1.17,2.826 0,1.656 -1.17,2.826 -1.17,1.17 -2.826,1.17 -0.972,0 -1.836,-0.45 -0.864,-0.45 -1.422,-1.242 l 1.278,-0.54 q 0.792,0.9 1.98,0.9 1.116,0 1.89,-0.774 0.774,-0.792 0.774,-1.89 0,-1.116 -0.774,-1.89 -0.774,-0.774 -1.89,-0.774 -1.188,0 -1.98,0.882 l -1.35,-0.576 v -0.306 -3.348 z"
         id="path26840"
         style="fill:#e9afaf" />
      <path
         d="m 115.80763,165.93913 v -1.332 h 1.332 v 1.332 z"
         id="path26842"
         style="fill:#e9afaf" />
      <path
         d="m 118.27361,154.58113 h 6.66 v 1.332 l -5.166,10.026 -1.224,-0.54 4.896,-9.486 h -5.166 z"
         id="path26844"
         style="fill:#e9afaf" />
      <path
         d="m 126.69759,155.48113 q 0.882,-0.882 2.124,-0.882 1.242,0 2.124,0.882 0.882,0.882 0.882,2.124 0,1.386 -1.062,2.286 0.648,0.468 1.008,1.188 0.378,0.702 0.378,1.53 0,1.368 -0.972,2.358 -0.972,0.972 -2.358,0.972 -1.368,0 -2.358,-0.972 -0.972,-0.99 -0.972,-2.358 0,-0.828 0.378,-1.53 0.378,-0.72 1.026,-1.188 -1.062,-0.9 -1.062,-2.286 0,-1.242 0.864,-2.124 z m 3.312,0.954 q -0.486,-0.504 -1.188,-0.504 -0.684,0 -1.17,0.504 -0.486,0.486 -0.486,1.17 0,0.684 0.486,1.188 0.486,0.486 1.17,0.486 0.702,0 1.188,-0.486 0.486,-0.504 0.486,-1.188 0,-0.684 -0.486,-1.17 z m 0.216,4.77 q -0.576,-0.594 -1.404,-0.594 -0.828,0 -1.422,0.594 -0.576,0.576 -0.576,1.404 0,0.828 0.576,1.422 0.594,0.576 1.422,0.576 0.828,0 1.404,-0.576 0.594,-0.594 0.594,-1.422 0,-0.828 -0.594,-1.404 z"
         id="path26846"
         style="fill:#e9afaf" />
      <path
         d="m 134.02355,165.93913 -1.026,-0.846 3.15,-3.834 q -1.332,-0.072 -2.25,-1.026 -0.9,-0.972 -0.9,-2.286 0,-1.386 0.972,-2.358 0.972,-0.99 2.358,-0.99 1.386,0 2.358,0.99 0.972,0.972 0.972,2.358 -0.018,1.206 -1.17,2.574 z m 0.882,-6.57 q 0.594,0.576 1.422,0.576 0.828,0 1.404,-0.576 0.594,-0.594 0.594,-1.422 0,-0.828 -0.594,-1.422 -0.576,-0.594 -1.404,-0.594 -0.828,0 -1.422,0.594 -0.576,0.594 -0.576,1.422 0,0.828 0.576,1.422 z"
         id="path26848"
         style="fill:#e9afaf" />
      <path
         d="m 139.16086,164.58913 h 1.332 v 1.98 q 0,0 0,0.018 0,0.27 -0.198,0.468 -0.198,0.198 -0.468,0.198 -0.27,0 -0.468,-0.198 -0.198,-0.198 -0.198,-0.468 z"
         id="path26850"
         style="fill:#e9afaf" />
      <path
         d="m 142.56283,156.27313 q 1.17,-1.674 2.826,-1.674 1.656,0 2.826,1.674 1.17,1.656 1.17,3.996 0,2.34 -1.17,4.014 -1.17,1.656 -2.826,1.656 -1.656,0 -2.826,-1.656 -1.17,-1.674 -1.17,-4.014 0,-2.34 1.17,-3.996 z m 4.716,0.936 q -0.774,-1.278 -1.89,-1.278 -1.098,0 -1.89,1.278 -0.774,1.278 -0.774,3.078 0,1.782 0.774,3.06 0.792,1.26 1.89,1.26 1.116,0 1.89,-1.26 0.774,-1.278 0.774,-3.06 0,-1.8 -0.774,-3.078 z m -2.358,1.926 q 0.198,-0.198 0.468,-0.198 0.288,0 0.468,0.198 0.198,0.198 0.198,0.468 v 1.332 q 0,0 0,0.018 0,0.27 -0.198,0.468 -0.18,0.198 -0.468,0.198 -0.27,0 -0.468,-0.198 -0.198,-0.198 -0.198,-0.468 v -1.35 q 0,-0.27 0.198,-0.468 z"
         id="path26852"
         style="fill:#e9afaf" />
    </g>
    <g
       aria-label="95.7%"
       id="text27095"
       style="font-size:18px;line-height:1.25;font-family:Serarif;-inkscape-font-specification:Serarif;fill:#ff9955;stroke-width:0.264583"
       transform="translate(76.667916,-26.59989)">
      <path
         d="m 74.989631,183.56775 -1.026,-0.846 3.15,-3.834 q -1.332,-0.072 -2.25,-1.026 -0.9,-0.972 -0.9,-2.286 0,-1.386 0.972,-2.358 0.972,-0.99 2.358,-0.99 1.386,0 2.358,0.99 0.972,0.972 0.972,2.358 -0.018,1.206 -1.17,2.574 z m 0.882,-6.57 q 0.594,0.576 1.422,0.576 0.828,0 1.404,-0.576 0.594,-0.594 0.594,-1.422 0,-0.828 -0.594,-1.422 -0.576,-0.594 -1.404,-0.594 -0.828,0 -1.422,0.594 -0.576,0.594 -0.576,1.422 0,0.828 0.576,1.422 z"
         id="path28099"
         style="fill:#ff9955" />
      <path
         d="m 81.919621,172.22775 h 5.994 v 1.332 h -4.662 v 2.556 q 0.936,-0.54 1.998,-0.54 1.656,0 2.826,1.17 1.17,1.17 1.17,2.826 0,1.656 -1.17,2.826 -1.17,1.17 -2.826,1.17 -0.972,0 -1.836,-0.45 -0.864,-0.45 -1.422,-1.242 l 1.278,-0.54 q 0.792,0.9 1.98,0.9 1.116,0 1.89,-0.774 0.774,-0.792 0.774,-1.89 0,-1.116 -0.774,-1.89 -0.774,-0.774 -1.89,-0.774 -1.188,0 -1.98,0.882 l -1.35,-0.576 v -0.306 -3.348 z"
         id="path28101"
         style="fill:#ff9955" />
      <path
         d="m 90.541598,183.56775 v -1.332 h 1.332 v 1.332 z"
         id="path28103"
         style="fill:#ff9955" />
      <path
         d="m 93.007572,172.20975 h 6.66 v 1.332 l -5.166,10.026 -1.224,-0.54 4.896,-9.486 h -5.166 z"
         id="path28105"
         style="fill:#ff9955" />
      <path
         d="m 111.42156,172.22775 0.954,0.954 -10.404,10.386 -0.936,-0.936 z m -9.09,0.684 q 0.684,-0.684 1.638,-0.684 0.972,0 1.656,0.684 0.684,0.684 0.684,1.656 0,0.972 -0.684,1.656 -0.684,0.684 -1.656,0.684 -0.954,0 -1.638,-0.684 -0.684,-0.684 -0.684,-1.656 0,-0.972 0.684,-1.656 z m 2.34,0.954 q -0.288,-0.306 -0.702,-0.306 -0.414,0 -0.702,0.306 -0.288,0.288 -0.288,0.702 0,0.414 0.288,0.72 0.288,0.288 0.702,0.288 0.414,0 0.702,-0.288 0.306,-0.306 0.306,-0.72 0,-0.414 -0.306,-0.702 z m 2.988,5.724 q 0.684,-0.684 1.638,-0.684 0.972,0 1.656,0.684 0.684,0.684 0.684,1.656 0,0.954 -0.684,1.638 -0.684,0.684 -1.656,0.684 -0.954,0 -1.638,-0.684 -0.684,-0.684 -0.684,-1.638 0,-0.972 0.684,-1.656 z m 2.358,0.936 q -0.288,-0.288 -0.702,-0.288 -0.414,0 -0.72,0.288 -0.288,0.288 -0.288,0.702 0,0.414 0.288,0.72 0.306,0.288 0.72,0.288 0.414,0 0.702,-0.288 0.288,-0.306 0.288,-0.72 0,-0.414 -0.288,-0.702 z"
         id="path28107"
         style="fill:#ff9955" />
    </g>
    <g
       aria-label="Licensed under
SIL Open Font License"
       id="text63362"
       style="font-size:7.40833px;line-height:1.25;font-family:Serarif;-inkscape-font-specification:Serarif;fill:#de8787;stroke-width:0.264583"
       transform="translate(-42.921894,-0.76646246)">
      <path
         d="m 62.849918,176.5013 h 0.74 v 5.56 h 2.96 v 0.74 h -2.96 -0.74 z"
         style="font-size:10px"
         id="path71432" />
      <path
         d="m 67.279913,182.8013 v -3.7 h 0.74 v 3.7 z m 0.11,-4.18 q -0.11,-0.11 -0.11,-0.26 0,-0.16 0.11,-0.26 0.11,-0.11 0.26,-0.11 0.15,0 0.26,0.11 0.11,0.1 0.11,0.26 0,0.15 -0.11,0.26 -0.11,0.11 -0.26,0.11 -0.15,0 -0.26,-0.11 z"
         style="font-size:10px"
         id="path71434" />
      <path
         d="m 70.559909,179.1013 q 0.82,0 1.37,0.61 l -0.61,0.43 q -0.32,-0.3 -0.76,-0.3 -0.46,0 -0.79,0.33 -0.32,0.32 -0.32,0.79 0,0.46 0.32,0.79 0.33,0.32 0.79,0.32 0.44,0 0.76,-0.31 l 0.61,0.43 q -0.55,0.61 -1.37,0.61 -0.77,0 -1.31,-0.54 -0.54,-0.54 -0.54,-1.31 0,-0.77 0.54,-1.31 0.54,-0.54 1.31,-0.54 z"
         style="font-size:10px"
         id="path71436" />
      <path
         d="m 72.679894,179.6413 q 0.54,-0.54 1.3,-0.54 0.77,0 1.31,0.54 0.55,0.54 0.55,1.31 v 0.37 h -2.9 q 0.11,0.33 0.4,0.54 0.29,0.21 0.65,0.21 0.44,0 0.76,-0.31 l 0.61,0.43 q -0.55,0.61 -1.37,0.61 -0.77,0 -1.31,-0.54 -0.54,-0.54 -0.54,-1.31 0,-0.77 0.54,-1.31 z m 1.94,0.41 q -0.28,-0.21 -0.64,-0.21 -0.35,0 -0.64,0.21 -0.28,0.2 -0.4,0.53 h 2.09 q -0.12,-0.33 -0.41,-0.53 z"
         style="font-size:10px"
         id="path71438" />
      <path
         d="m 76.479875,179.1013 h 0.74 v 0.37 q 0.49,-0.37 1.11,-0.37 0.76,0 1.3,0.54 0.55,0.54 0.55,1.31 v 1.85 h -0.74 v -1.85 q -0.01,-0.46 -0.33,-0.78 -0.32,-0.33 -0.78,-0.33 -0.46,0 -0.79,0.33 -0.32,0.32 -0.32,0.78 v 1.85 h -0.74 v -1.85 z"
         style="font-size:10px"
         id="path71440" />
      <path
         d="m 81.999875,179.1013 q 0.34,0 0.61,0.19 0.28,0.18 0.41,0.48 l -0.68,0.29 q -0.1,-0.22 -0.34,-0.22 -0.15,0 -0.26,0.11 -0.11,0.11 -0.11,0.26 0,0.15 0.11,0.26 0.11,0.11 0.26,0.11 0.46,0 0.78,0.33 0.33,0.32 0.33,0.78 0,0.46 -0.33,0.79 -0.32,0.32 -0.78,0.32 -0.34,0 -0.62,-0.18 -0.27,-0.19 -0.4,-0.49 l 0.68,-0.29 q 0.1,0.22 0.34,0.22 0.15,0 0.26,-0.11 0.11,-0.11 0.11,-0.26 0,-0.15 -0.11,-0.26 -0.11,-0.11 -0.26,-0.11 -0.46,0 -0.79,-0.32 -0.32,-0.33 -0.32,-0.79 0,-0.46 0.32,-0.78 0.33,-0.33 0.79,-0.33 z"
         style="font-size:10px"
         id="path71442" />
      <path
         d="m 84.209874,179.6413 q 0.54,-0.54 1.3,-0.54 0.77,0 1.31,0.54 0.55,0.54 0.55,1.31 v 0.37 h -2.9 q 0.11,0.33 0.4,0.54 0.29,0.21 0.65,0.21 0.44,0 0.76,-0.31 l 0.61,0.43 q -0.55,0.61 -1.37,0.61 -0.77,0 -1.31,-0.54 -0.54,-0.54 -0.54,-1.31 0,-0.77 0.54,-1.31 z m 1.94,0.41 q -0.28,-0.21 -0.64,-0.21 -0.35,0 -0.64,0.21 -0.28,0.2 -0.4,0.53 h 2.09 q -0.12,-0.33 -0.41,-0.53 z"
         style="font-size:10px"
         id="path71444" />
      <path
         d="m 90.969855,176.5013 h 0.74 v 4.44 1.85 h -0.74 v -0.37 q -0.49,0.37 -1.11,0.37 -0.77,0 -1.31,-0.54 -0.54,-0.54 -0.54,-1.31 0,-0.77 0.54,-1.31 0.54,-0.54 1.31,-0.54 0.62,0 1.11,0.37 z m -0.33,3.66 q -0.32,-0.33 -0.78,-0.33 -0.46,0 -0.79,0.33 -0.32,0.32 -0.32,0.79 0,0.46 0.32,0.79 0.33,0.32 0.79,0.32 0.46,0 0.78,-0.32 0.33,-0.33 0.33,-0.79 0,-0.47 -0.33,-0.79 z"
         style="font-size:10px"
         id="path71446" />
      <path
         d="m 94.859831,179.1013 h 0.74 v 1.85 q 0,0.46 0.32,0.79 0.33,0.32 0.79,0.32 0.46,0 0.78,-0.32 0.33,-0.33 0.33,-0.79 v -1.85 h 0.74 v 1.85 1.85 h -0.74 v -0.37 q -0.49,0.37 -1.11,0.37 -0.77,0 -1.31,-0.54 -0.54,-0.55 -0.54,-1.31 z"
         style="font-size:10px"
         id="path71448" />
      <path
         d="m 99.309828,179.1013 h 0.740002 v 0.37 q 0.49,-0.37 1.11,-0.37 0.76,0 1.3,0.54 0.55,0.54 0.55,1.31 v 1.85 h -0.74 v -1.85 q -0.01,-0.46 -0.33,-0.78 -0.32,-0.33 -0.78,-0.33 -0.46,0 -0.79,0.33 -0.32,0.32 -0.32,0.78 v 1.85 h -0.740002 v -1.85 z"
         style="font-size:10px"
         id="path71450" />
      <path
         d="m 106.67983,176.5013 h 0.74 v 4.44 1.85 h -0.74 v -0.37 q -0.49,0.37 -1.11,0.37 -0.77,0 -1.31,-0.54 -0.54,-0.54 -0.54,-1.31 0,-0.77 0.54,-1.31 0.54,-0.54 1.31,-0.54 0.62,0 1.11,0.37 z m -0.33,3.66 q -0.32,-0.33 -0.78,-0.33 -0.46,0 -0.79,0.33 -0.32,0.32 -0.32,0.79 0,0.46 0.32,0.79 0.33,0.32 0.79,0.32 0.46,0 0.78,-0.32 0.33,-0.33 0.33,-0.79 0,-0.47 -0.33,-0.79 z"
         style="font-size:10px"
         id="path71452" />
      <path
         d="m 108.57982,179.6413 q 0.54,-0.54 1.3,-0.54 0.77,0 1.31,0.54 0.55,0.54 0.55,1.31 v 0.37 h -2.9 q 0.11,0.33 0.4,0.54 0.29,0.21 0.65,0.21 0.44,0 0.76,-0.31 l 0.61,0.43 q -0.55,0.61 -1.37,0.61 -0.77,0 -1.31,-0.54 -0.54,-0.54 -0.54,-1.31 0,-0.77 0.54,-1.31 z m 1.94,0.41 q -0.28,-0.21 -0.64,-0.21 -0.35,0 -0.64,0.21 -0.28,0.2 -0.4,0.53 h 2.09 q -0.12,-0.33 -0.41,-0.53 z"
         style="font-size:10px"
         id="path71454" />
      <path
         d="m 112.3798,179.1013 h 0.74 v 0.37 q 0.49,-0.37 1.11,-0.37 v 0.74 0 q -0.46,0 -0.79,0.33 -0.32,0.32 -0.32,0.78 v 1.85 h -0.74 v -1.85 z"
         style="font-size:10px"
         id="path71456" />
      <path
         d="m 65.285918,186.25228 q 0.54,0.06 0.984,0.36 0.444,0.3 0.696,0.78 l -0.756,0.48 q -0.132,-0.3 -0.408,-0.492 -0.264,-0.204 -0.6,-0.24 -0.504,-0.048 -0.9,0.276 -0.384,0.324 -0.432,0.828 0,0.048 0,0.108 0.084,0.336 0.372,0.6 0.3,0.264 0.66,0.468 0.372,0.192 0.744,0.42 0.384,0.216 0.708,0.576 0.336,0.348 0.492,0.804 0.072,0.324 0.036,0.648 -0.072,0.876 -0.744,1.44 -0.672,0.552 -1.548,0.468 -0.588,-0.06 -1.056,-0.396 -0.456,-0.336 -0.684,-0.864 l 0.768,-0.48 q 0.108,0.348 0.384,0.588 0.288,0.228 0.672,0.264 0.504,0.048 0.888,-0.276 0.396,-0.324 0.444,-0.828 0,-0.048 0,-0.108 0.048,-0.312 -0.18,-0.576 -0.216,-0.264 -0.612,-0.48 -0.384,-0.228 -0.804,-0.456 -0.42,-0.24 -0.816,-0.588 -0.396,-0.348 -0.564,-0.768 -0.072,-0.324 -0.048,-0.648 0.084,-0.864 0.756,-1.416 0.672,-0.564 1.548,-0.492 z"
         style="font-size:12px;fill:#e9afaf"
         id="path71458" />
      <path
         d="m 67.769917,186.21628 h 0.888 v 7.56 h -0.888 z"
         style="font-size:12px;fill:#e9afaf"
         id="path71460" />
      <path
         d="m 69.353916,186.21628 h 0.888 v 6.672 h 3.552 v 0.888 h -3.552 -0.888 z"
         style="font-size:12px;fill:#e9afaf"
         id="path71462" />
      <path
         d="m 78.47389,187.33228 q 0.78,-1.116 1.884,-1.116 1.104,0 1.884,1.116 0.78,1.104 0.78,2.664 0,1.56 -0.78,2.676 -0.78,1.104 -1.884,1.104 -1.104,0 -1.884,-1.104 -0.78,-1.116 -0.78,-2.676 0,-1.56 0.78,-2.664 z m 3.144,0.624 q -0.516,-0.852 -1.26,-0.852 -0.732,0 -1.26,0.852 -0.516,0.852 -0.516,2.052 0,1.188 0.516,2.04 0.528,0.84 1.26,0.84 0.744,0 1.26,-0.84 0.516,-0.852 0.516,-2.04 0,-1.2 -0.516,-2.052 z"
         style="font-size:12px;fill:#e9afaf"
         id="path71464" />
      <path
         d="m 83.777889,189.33628 h 0.888 v 0.444 q 0.588,-0.444 1.332,-0.444 0.924,0 1.572,0.66 0.648,0.648 0.648,1.572 0,0.912 -0.648,1.56 -0.648,0.648 -1.572,0.648 -0.744,0 -1.332,-0.444 v 3.564 h -0.888 z m 3.156,1.284 q -0.384,-0.396 -0.936,-0.396 -0.552,0 -0.948,0.396 -0.384,0.396 -0.384,0.948 0,0.552 0.384,0.948 0.396,0.396 0.948,0.396 0.552,0 0.936,-0.396 0.396,-0.396 0.396,-0.948 0,-0.552 -0.396,-0.948 z"
         style="font-size:12px;fill:#e9afaf"
         id="path71466" />
      <path
         d="m 89.129875,189.98428 q 0.648,-0.648 1.56,-0.648 0.924,0 1.572,0.648 0.66,0.648 0.66,1.572 v 0.444 h -3.48 q 0.132,0.396 0.48,0.648 0.348,0.252 0.78,0.252 0.528,0 0.912,-0.372 l 0.732,0.516 q -0.66,0.732 -1.644,0.732 -0.924,0 -1.572,-0.648 -0.648,-0.648 -0.648,-1.572 0,-0.924 0.648,-1.572 z m 2.328,0.492 q -0.336,-0.252 -0.768,-0.252 -0.42,0 -0.768,0.252 -0.336,0.24 -0.48,0.636 h 2.508 q -0.144,-0.396 -0.492,-0.636 z"
         style="font-size:12px;fill:#e9afaf"
         id="path71468" />
      <path
         d="m 93.689853,189.33628 h 0.888 v 0.444 q 0.588,-0.444 1.332,-0.444 0.912,0 1.56,0.648 0.66,0.648 0.66,1.572 v 2.22 h -0.888 v -2.22 q -0.012,-0.552 -0.396,-0.936 -0.384,-0.396 -0.936,-0.396 -0.552,0 -0.948,0.396 -0.384,0.384 -0.384,0.936 v 2.22 h -0.888 v -2.22 z"
         style="font-size:12px;fill:#e9afaf"
         id="path71470" />
      <path
         d="m 102.00583,186.21628 h 0.888 3.552 v 0.888 h -3.552 v 2.232 h 2.664 v 0.888 h -2.664 v 3.552 h -0.888 z"
         style="font-size:12px;fill:#e9afaf"
         id="path71472" />
      <path
         d="m 107.03379,189.98428 q 0.648,-0.648 1.56,-0.648 0.924,0 1.572,0.648 0.66,0.648 0.66,1.572 0,0.924 -0.66,1.572 -0.648,0.648 -1.572,0.648 -0.912,0 -1.56,-0.648 -0.648,-0.648 -0.648,-1.572 0,-0.924 0.648,-1.572 z m 2.508,0.636 q -0.384,-0.396 -0.936,-0.396 -0.552,0 -0.948,0.396 -0.384,0.384 -0.384,0.948 0,0.552 0.384,0.948 0.396,0.384 0.948,0.384 0.552,0 0.936,-0.384 0.396,-0.396 0.396,-0.948 0,-0.564 -0.396,-0.948 z"
         style="font-size:12px;fill:#e9afaf"
         id="path71474" />
      <path
         d="m 111.46177,189.33628 h 0.888 v 0.444 q 0.588,-0.444 1.332,-0.444 0.912,0 1.56,0.648 0.66,0.648 0.66,1.572 v 2.22 h -0.888 v -2.22 q -0.012,-0.552 -0.396,-0.936 -0.384,-0.396 -0.936,-0.396 -0.552,0 -0.948,0.396 -0.384,0.384 -0.384,0.936 v 2.22 h -0.888 v -2.22 z"
         style="font-size:12px;fill:#e9afaf"
         id="path71476" />
      <path
         d="m 117.64177,188.44828 h 0.888 v 0.888 h 0.888 v 0.888 h -0.888 v 3.552 h -0.888 v -3.552 h -0.888 v -0.888 h 0.888 z"
         style="font-size:12px;fill:#e9afaf"
         id="path71478" />
      <path
         d="m 123.12574,186.21628 h 0.888 v 6.672 h 3.552 v 0.888 h -3.552 -0.888 z"
         style="font-size:12px;fill:#e9afaf"
         id="path71480" />
      <path
         d="m 128.44174,193.77628 v -4.44 h 0.888 v 4.44 z m 0.132,-5.016 q -0.132,-0.132 -0.132,-0.312 0,-0.192 0.132,-0.312 0.132,-0.132 0.312,-0.132 0.18,0 0.312,0.132 0.132,0.12 0.132,0.312 0,0.18 -0.132,0.312 -0.132,0.132 -0.312,0.132 -0.18,0 -0.312,-0.132 z"
         style="font-size:12px;fill:#e9afaf"
         id="path71482" />
      <path
         d="m 132.37773,189.33628 q 0.984,0 1.644,0.732 l -0.732,0.516 q -0.384,-0.36 -0.912,-0.36 -0.552,0 -0.948,0.396 -0.384,0.384 -0.384,0.948 0,0.552 0.384,0.948 0.396,0.384 0.948,0.384 0.528,0 0.912,-0.372 l 0.732,0.516 q -0.66,0.732 -1.644,0.732 -0.924,0 -1.572,-0.648 -0.648,-0.648 -0.648,-1.572 0,-0.924 0.648,-1.572 0.648,-0.648 1.572,-0.648 z"
         style="font-size:12px;fill:#e9afaf"
         id="path71484" />
      <path
         d="m 134.92171,189.98428 q 0.648,-0.648 1.56,-0.648 0.924,0 1.572,0.648 0.66,0.648 0.66,1.572 v 0.444 h -3.48 q 0.132,0.396 0.48,0.648 0.348,0.252 0.78,0.252 0.528,0 0.912,-0.372 l 0.732,0.516 q -0.66,0.732 -1.644,0.732 -0.924,0 -1.572,-0.648 -0.648,-0.648 -0.648,-1.572 0,-0.924 0.648,-1.572 z m 2.328,0.492 q -0.336,-0.252 -0.768,-0.252 -0.42,0 -0.768,0.252 -0.336,0.24 -0.48,0.636 h 2.508 q -0.144,-0.396 -0.492,-0.636 z"
         style="font-size:12px;fill:#e9afaf"
         id="path71486" />
      <path
         d="m 139.48169,189.33628 h 0.888 v 0.444 q 0.588,-0.444 1.332,-0.444 0.912,0 1.56,0.648 0.66,0.648 0.66,1.572 v 2.22 h -0.888 v -2.22 q -0.012,-0.552 -0.396,-0.936 -0.384,-0.396 -0.936,-0.396 -0.552,0 -0.948,0.396 -0.384,0.384 -0.384,0.936 v 2.22 h -0.888 v -2.22 z"
         style="font-size:12px;fill:#e9afaf"
         id="path71488" />
      <path
         d="m 146.10569,189.33628 q 0.408,0 0.732,0.228 0.336,0.216 0.492,0.576 l -0.816,0.348 q -0.12,-0.264 -0.408,-0.264 -0.18,0 -0.312,0.132 -0.132,0.132 -0.132,0.312 0,0.18 0.132,0.312 0.132,0.132 0.312,0.132 0.552,0 0.936,0.396 0.396,0.384 0.396,0.936 0,0.552 -0.396,0.948 -0.384,0.384 -0.936,0.384 -0.408,0 -0.744,-0.216 -0.324,-0.228 -0.48,-0.588 l 0.816,-0.348 q 0.12,0.264 0.408,0.264 0.18,0 0.312,-0.132 0.132,-0.132 0.132,-0.312 0,-0.18 -0.132,-0.312 -0.132,-0.132 -0.312,-0.132 -0.552,0 -0.948,-0.384 -0.384,-0.396 -0.384,-0.948 0,-0.552 0.384,-0.936 0.396,-0.396 0.948,-0.396 z"
         style="font-size:12px;fill:#e9afaf"
         id="path71490" />
      <path
         d="m 148.75769,189.98428 q 0.648,-0.648 1.56,-0.648 0.924,0 1.572,0.648 0.66,0.648 0.66,1.572 v 0.444 h -3.48 q 0.132,0.396 0.48,0.648 0.348,0.252 0.78,0.252 0.528,0 0.912,-0.372 l 0.732,0.516 q -0.66,0.732 -1.644,0.732 -0.924,0 -1.572,-0.648 -0.648,-0.648 -0.648,-1.572 0,-0.924 0.648,-1.572 z m 2.328,0.492 q -0.336,-0.252 -0.768,-0.252 -0.42,0 -0.768,0.252 -0.336,0.24 -0.48,0.636 h 2.508 q -0.144,-0.396 -0.492,-0.636 z"
         style="font-size:12px;fill:#e9afaf"
         id="path71492" />
    </g>
  </g>
</svg>
