<?xml version="1.0" encoding="UTF-8" standalone="no"?>
<!-- Created with Inkscape (http://www.inkscape.org/) -->

<svg
   width="27"
   height="27"
   viewBox="0 0 7.14375 7.1437502"
   version="1.1"
   id="svg5"
   inkscape:version="1.1 (c68e22c387, 2021-05-23)"
   sodipodi:docname="At.svg"
   xmlns:inkscape="http://www.inkscape.org/namespaces/inkscape"
   xmlns:sodipodi="http://sodipodi.sourceforge.net/DTD/sodipodi-0.dtd"
   xmlns="http://www.w3.org/2000/svg"
   xmlns:svg="http://www.w3.org/2000/svg"
   xmlns:rdf="http://www.w3.org/1999/02/22-rdf-syntax-ns#"
   xmlns:cc="http://creativecommons.org/ns#"
   xmlns:dc="http://purl.org/dc/elements/1.1/">
  <title
     id="title836">Serarif</title>
  <sodipodi:namedview
     id="namedview7"
     pagecolor="#ffffff"
     bordercolor="#999999"
     borderopacity="1"
     inkscape:pageshadow="0"
     inkscape:pageopacity="0"
     inkscape:pagecheckerboard="0"
     inkscape:document-units="px"
     showgrid="true"
     showguides="true"
     inkscape:guide-bbox="true"
     inkscape:zoom="17.125"
     inkscape:cx="24.759124"
     inkscape:cy="13.751825"
     inkscape:window-width="1366"
     inkscape:window-height="705"
     inkscape:window-x="-8"
     inkscape:window-y="-8"
     inkscape:window-maximized="1"
     inkscape:current-layer="layer1">
    <inkscape:grid
       type="xygrid"
       id="grid824"
       dotted="true" />
    <sodipodi:guide
       position="0,1.8520834"
       orientation="0,-1"
       id="guide826" />
    <sodipodi:guide
       position="0,0"
       orientation="0,-1"
       id="guide828" />
    <sodipodi:guide
       position="0,6.3500001"
       orientation="0,-1"
       id="guide830" />
    <sodipodi:guide
       position="1.3229167,7.1437502"
       orientation="1,0"
       id="guide832" />
    <sodipodi:guide
       position="0,7.1437502"
       orientation="0,-1"
       id="guide829" />
  </sodipodi:namedview>
  <defs
     id="defs2" />
  <g
     inkscape:label="Layer 1"
     inkscape:groupmode="layer"
     id="layer1">
    <path
       id="path33899"
       style="fill:#000000;stroke:none;stroke-width:0.529167;stroke-linecap:butt;stroke-linejoin:bevel;stroke-miterlimit:0;stroke-dasharray:none;paint-order:normal"
       d="m 3.571876,0.79375001 c -1.242066,0 -2.248959,1.00689299 -2.248959,2.24895799 0,1.242066 1.006893,2.248959 2.248959,2.248959 H 5.688542 V 4.7625 H 3.571876 c -0.949815,0 -1.719792,-0.769977 -1.719792,-1.719792 0,-0.949814 0.769977,-1.719791 1.719792,-1.719791 0.949814,0 1.719791,0.769977 1.719791,1.719791 C 5.289767,3.255869 5.248577,3.466849 5.16971,3.664892 5.09659,3.80127 4.999639,3.860861 4.894792,3.894853 V 3.095418 h -10e-4 a 1.3229166,1.3229149 0 0 0 10e-4,-0.05271 A 1.3229166,1.3229149 0 0 0 3.571876,1.719792 1.3229166,1.3229149 0 0 0 2.248959,3.042708 1.3229166,1.3229149 0 0 0 3.571876,4.365625 1.3229166,1.3229149 0 0 0 4.365626,4.101558 v 0.131775 c 0,0.146126 0.118459,0.264584 0.264583,0.264584 0.04037,0 0.07843,-0.0092 0.112654,-0.02532 C 5.058601,4.400717 5.259129,4.322614 5.510258,4.086574 5.735299,3.846525 5.747875,3.62628 5.798614,3.350185 5.813034,3.248322 5.820464,3.14559 5.820834,3.04271 5.820834,1.800645 4.813941,0.79375201 3.571876,0.79375201 Z M 3.57136,2.248958 A 0.7930861,0.798216 0 0 1 4.364075,3.047359 0.7930861,0.798216 0 0 1 3.57136,3.845243 0.7930861,0.798216 0 0 1 2.778126,3.047359 0.7930861,0.798216 0 0 1 3.57136,2.248958 Z" />
  </g>
  <metadata
     id="metadata834">
    <rdf:RDF>
      <cc:Work
         rdf:about="">
        <cc:license
           rdf:resource="OFL 1.1" />
        <dc:creator>
          <cc:Agent>
            <dc:title>nahkd123</dc:title>
          </cc:Agent>
        </dc:creator>
        <dc:title>Serarif</dc:title>
        <dc:description>Serarif Remastered</dc:description>
      </cc:Work>
    </rdf:RDF>
  </metadata>
</svg>
