<?xml version="1.0" encoding="UTF-8" standalone="no"?>
<!-- Created with Inkscape (http://www.inkscape.org/) -->

<svg
   width="27"
   height="27"
   viewBox="0 0 7.14375 7.1437502"
   version="1.1"
   id="svg5"
   inkscape:version="1.1 (c68e22c387, 2021-05-23)"
   sodipodi:docname="Dollar Sign.svg"
   xmlns:inkscape="http://www.inkscape.org/namespaces/inkscape"
   xmlns:sodipodi="http://sodipodi.sourceforge.net/DTD/sodipodi-0.dtd"
   xmlns="http://www.w3.org/2000/svg"
   xmlns:svg="http://www.w3.org/2000/svg"
   xmlns:rdf="http://www.w3.org/1999/02/22-rdf-syntax-ns#"
   xmlns:cc="http://creativecommons.org/ns#"
   xmlns:dc="http://purl.org/dc/elements/1.1/">
  <title
     id="title836">Serarif</title>
  <sodipodi:namedview
     id="namedview7"
     pagecolor="#ffffff"
     bordercolor="#999999"
     borderopacity="1"
     inkscape:pageshadow="0"
     inkscape:pageopacity="0"
     inkscape:pagecheckerboard="0"
     inkscape:document-units="px"
     showgrid="true"
     showguides="true"
     inkscape:guide-bbox="true"
     inkscape:zoom="17.125"
     inkscape:cx="24.759124"
     inkscape:cy="13.751825"
     inkscape:window-width="1366"
     inkscape:window-height="705"
     inkscape:window-x="-8"
     inkscape:window-y="-8"
     inkscape:window-maximized="1"
     inkscape:current-layer="layer1">
    <inkscape:grid
       type="xygrid"
       id="grid824"
       dotted="true" />
    <sodipodi:guide
       position="0,1.8520834"
       orientation="0,-1"
       id="guide826" />
    <sodipodi:guide
       position="0,0"
       orientation="0,-1"
       id="guide828" />
    <sodipodi:guide
       position="0,6.3500001"
       orientation="0,-1"
       id="guide830" />
    <sodipodi:guide
       position="1.3229167,7.1437502"
       orientation="1,0"
       id="guide832" />
    <sodipodi:guide
       position="0,7.1437502"
       orientation="0,-1"
       id="guide829" />
  </sodipodi:namedview>
  <defs
     id="defs2" />
  <g
     inkscape:label="Layer 1"
     inkscape:groupmode="layer"
     id="layer1">
    <path
       id="path35881"
       style="stroke-width:0.558564;stroke-linejoin:bevel;stroke-miterlimit:0"
       d="M 2.3812553,0.52916679 V 0.80925312 C 1.7814898,0.90443009 1.322922,1.4239781 1.322922,2.050521 c 5.291e-4,0.1286129 0.021034,0.2563632 0.060463,0.3787883 0.4637723,0.868871 1.9723814,0.8647869 1.9239124,1.5394408 0.00185,0.021299 0.00299,0.042679 0.0031,0.064079 0,0.4018449 -0.3257602,0.7276042 -0.7276041,0.7276042 -0.3040962,0 -0.5640784,-0.1867472 -0.6728275,-0.4516522 L 1.482598,4.6395101 c 0.1830943,0.3313155 0.5110797,0.5714865 0.898652,0.63407 v 0.28267 H 2.9104166 V 5.2461915 C 3.4456581,5.1020714 3.8395592,4.6135974 3.8395592,4.032829 3.83903,3.9042158 3.8185248,3.7764658 3.7790966,3.6540407 3.3619625,2.7004006 2.1278003,2.8133938 1.8551842,2.1145999 c -0.00185,-0.021299 -0.00299,-0.042679 -0.0031,-0.064079 0,-0.4018439 0.3257603,-0.7276042 0.7276042,-0.7276042 0.274775,0 0.5138843,0.1524378 0.6376881,0.3772379 L 3.638542,1.3740764 C 3.4726589,1.1149704 3.2145922,0.92103957 2.9104219,0.83819192 V 0.52916679 Z" />
  </g>
  <metadata
     id="metadata834">
    <rdf:RDF>
      <cc:Work
         rdf:about="">
        <cc:license
           rdf:resource="OFL 1.1" />
        <dc:creator>
          <cc:Agent>
            <dc:title>nahkd123</dc:title>
          </cc:Agent>
        </dc:creator>
        <dc:title>Serarif</dc:title>
        <dc:description>Serarif Remastered</dc:description>
      </cc:Work>
    </rdf:RDF>
  </metadata>
</svg>
