<?xml version="1.0" encoding="UTF-8" standalone="no"?>
<!-- Created with Inkscape (http://www.inkscape.org/) -->

<svg
   width="27"
   height="27"
   viewBox="0 0 7.14375 7.1437502"
   version="1.1"
   id="svg5"
   inkscape:version="1.1 (c68e22c387, 2021-05-23)"
   sodipodi:docname="Percent Sign.svg"
   xmlns:inkscape="http://www.inkscape.org/namespaces/inkscape"
   xmlns:sodipodi="http://sodipodi.sourceforge.net/DTD/sodipodi-0.dtd"
   xmlns="http://www.w3.org/2000/svg"
   xmlns:svg="http://www.w3.org/2000/svg"
   xmlns:rdf="http://www.w3.org/1999/02/22-rdf-syntax-ns#"
   xmlns:cc="http://creativecommons.org/ns#"
   xmlns:dc="http://purl.org/dc/elements/1.1/">
  <title
     id="title836">Serarif</title>
  <sodipodi:namedview
     id="namedview7"
     pagecolor="#ffffff"
     bordercolor="#999999"
     borderopacity="1"
     inkscape:pageshadow="0"
     inkscape:pageopacity="0"
     inkscape:pagecheckerboard="0"
     inkscape:document-units="px"
     showgrid="true"
     showguides="true"
     inkscape:guide-bbox="true"
     inkscape:zoom="17.125"
     inkscape:cx="24.759124"
     inkscape:cy="13.751825"
     inkscape:window-width="1366"
     inkscape:window-height="705"
     inkscape:window-x="-8"
     inkscape:window-y="-8"
     inkscape:window-maximized="1"
     inkscape:current-layer="layer1">
    <inkscape:grid
       type="xygrid"
       id="grid824"
       dotted="true" />
    <sodipodi:guide
       position="0,1.8520834"
       orientation="0,-1"
       id="guide826" />
    <sodipodi:guide
       position="0,0"
       orientation="0,-1"
       id="guide828" />
    <sodipodi:guide
       position="0,6.3500001"
       orientation="0,-1"
       id="guide830" />
    <sodipodi:guide
       position="1.3229167,7.1437502"
       orientation="1,0"
       id="guide832" />
    <sodipodi:guide
       position="0,7.1437502"
       orientation="0,-1"
       id="guide829" />
  </sodipodi:namedview>
  <defs
     id="defs2" />
  <g
     inkscape:label="Layer 1"
     inkscape:groupmode="layer"
     id="layer1">
    <path
       id="rect36220"
       style="fill:#000000;fill-opacity:1;stroke:none;stroke-width:0.529167;stroke-linecap:butt;stroke-linejoin:bevel;stroke-miterlimit:0;stroke-dasharray:none;paint-order:normal"
       d="M 5.4466966,0.79375014 1.3229167,4.9175295 1.6970534,5.2916668 5.8208333,1.1678874 Z" />
    <path
       id="path36430"
       style="fill:#000000;fill-opacity:1;stroke:none;stroke-width:0.529167;stroke-linecap:butt;stroke-linejoin:bevel;stroke-miterlimit:0;stroke-dasharray:none;paint-order:normal"
       d="M 2.4908038,0.79375 A 0.92604165,0.92604165 0 0 0 1.5647618,1.719792 0.92604165,0.92604165 0 0 0 2.4908038,2.645834 0.92604165,0.92604165 0 0 0 3.4168458,1.719792 0.92604165,0.92604165 0 0 0 2.4908038,0.79375 Z m 0,0.529167 a 0.396875,0.396875 0 0 1 0.396875,0.396875 0.396875,0.396875 0 0 1 -0.396875,0.396875 0.396875,0.396875 0 0 1 -0.396875,-0.396875 0.396875,0.396875 0 0 1 0.396875,-0.396875 z" />
    <path
       id="path36544"
       style="fill:#000000;fill-opacity:1;stroke:none;stroke-width:0.529167;stroke-linecap:butt;stroke-linejoin:bevel;stroke-miterlimit:0;stroke-dasharray:none;paint-order:normal"
       d="m 4.6074708,3.439584 a 0.92604165,0.92604165 0 0 0 -0.926042,0.926041 0.92604165,0.92604165 0 0 0 0.926042,0.926042 0.92604165,0.92604165 0 0 0 0.926041,-0.926042 0.92604165,0.92604165 0 0 0 -0.926041,-0.926041 z m 0,0.529166 A 0.396875,0.396875 0 0 1 5.0043458,4.365625 0.396875,0.396875 0 0 1 4.6074708,4.7625 0.396875,0.396875 0 0 1 4.2105958,4.365625 0.396875,0.396875 0 0 1 4.6074708,3.96875 Z" />
  </g>
  <metadata
     id="metadata834">
    <rdf:RDF>
      <cc:Work
         rdf:about="">
        <cc:license
           rdf:resource="OFL 1.1" />
        <dc:creator>
          <cc:Agent>
            <dc:title>nahkd123</dc:title>
          </cc:Agent>
        </dc:creator>
        <dc:title>Serarif</dc:title>
        <dc:description>Serarif Remastered</dc:description>
      </cc:Work>
    </rdf:RDF>
  </metadata>
</svg>
